<svg width="135" height="521" viewBox="0 0 135 521" fill="none" xmlns="http://www.w3.org/2000/svg">
<g opacity="0.3">
<path d="M23.5912 -17.6949L67.0535 15.0913L108.071 46.0178L112.789 49.565C126.22 59.6902 134.141 75.5323 134.141 92.3731L134.141 127.501L67.0535 76.9442L26.0363 46.0178L21.3182 42.4705C7.99016 32.4487 0.138013 16.7788 0.000257844 0.110208C0.00025785 -0.027548 0.000257858 -0.199709 0.000257864 -0.337465L0.00025938 -35.0179C0.00025938 -35.0179 0.000259393 -35.3278 0.000259399 -35.4656L23.5912 -17.6605L23.5912 -17.6949Z" fill="url(#paint0_linear_44_443)"/>
<path d="M23.5912 109.696L0.00027388 127.501C0.138029 144.17 8.02462 159.805 21.3182 169.861L26.0364 173.409L67.0536 142.482L23.5912 109.696Z" fill="url(#paint1_linear_44_443)"/>
<path d="M23.5911 109.696L67.0535 76.9098L108.071 45.9834L112.789 42.4361C126.22 32.311 134.141 16.4689 134.141 -0.371937L134.141 -35.5L67.0535 15.0568L26.0363 45.9834L21.3181 49.5306C7.99012 59.5524 0.13798 75.2223 0.000223313 91.8909C0.000223307 92.0287 0.0002233 92.2009 0.000223294 92.3386L0.000221778 127.019C0.000221778 127.019 0.000221764 127.329 0.000221758 127.467L23.5911 109.662L23.5911 109.696Z" fill="url(#paint2_linear_44_443)"/>
<path d="M23.5912 109.12L67.0535 141.906L108.071 172.832L112.789 176.38C126.22 186.505 134.141 202.347 134.141 219.188L134.141 254.316L67.0535 203.759L26.0363 172.832L21.3182 169.285C7.99016 159.263 0.138013 143.594 0.000257844 126.925C0.00025785 126.787 0.000257858 126.615 0.000257864 126.477L0.00025938 91.7968C0.00025938 91.7968 0.000259393 91.4869 0.000259399 91.3491L23.5912 109.154L23.5912 109.12Z" fill="url(#paint3_linear_44_443)"/>
<path d="M23.5912 236.511L0.00027388 254.316C0.138029 270.984 8.02462 286.62 21.3182 296.676L26.0364 300.223L67.0536 269.297L23.5912 236.511Z" fill="url(#paint4_linear_44_443)"/>
<path d="M23.5909 236.511L67.0533 203.724L108.07 172.798L112.789 169.251C126.22 159.126 134.141 143.283 134.141 126.443L134.141 91.3146L67.0533 141.871L26.0361 172.798L21.3179 176.345C7.98991 186.367 0.137767 202.037 9.69035e-06 218.706C9.68433e-06 218.843 9.67681e-06 219.015 9.67079e-06 219.153L8.15486e-06 253.834C8.15486e-06 253.834 8.14131e-06 254.143 8.13529e-06 254.281L23.5909 236.476L23.5909 236.511Z" fill="url(#paint5_linear_44_443)"/>
<path d="M23.5912 235.934L67.0535 268.721L108.071 299.647L112.789 303.194C126.22 313.319 134.141 329.162 134.141 346.002L134.141 381.13L67.0535 330.574L26.0363 299.647L21.3182 296.1C7.99016 286.078 0.138013 270.408 0.000257844 253.739C0.00025785 253.602 0.000257858 253.43 0.000257864 253.292L0.00025938 218.611C0.00025938 218.611 0.000259393 218.301 0.000259399 218.164L23.5912 235.969L23.5912 235.934Z" fill="url(#paint6_linear_44_443)"/>
<path d="M23.5912 363.325L0.00027388 381.13C0.138029 397.799 8.02462 413.434 21.3182 423.491L26.0364 427.038L67.0536 396.111L23.5912 363.325Z" fill="url(#paint7_linear_44_443)"/>
<path d="M23.5909 363.325L67.0533 330.539L108.07 299.613L112.789 296.065C126.22 285.94 134.141 270.098 134.141 253.257L134.141 218.129L67.0533 268.686L26.0361 299.613L21.3179 303.16C7.98991 313.182 0.137767 328.852 9.69035e-06 345.52C9.68433e-06 345.658 9.67681e-06 345.83 9.67079e-06 345.968L8.15486e-06 380.648C8.15486e-06 380.648 8.14131e-06 380.958 8.13529e-06 381.096L23.5909 363.291L23.5909 363.325Z" fill="url(#paint8_linear_44_443)"/>
<path d="M23.5912 362.749L67.0535 395.535L108.071 426.462L112.789 430.009C126.22 440.134 134.141 455.976 134.141 472.817L134.141 507.945L67.0535 457.388L26.0363 426.462L21.3182 422.914C7.99016 412.893 0.138013 397.223 0.000257844 380.554C0.00025785 380.416 0.000257858 380.244 0.000257864 380.106L0.00025938 345.426C0.00025938 345.426 0.000259393 345.116 0.000259399 344.978L23.5912 362.783L23.5912 362.749Z" fill="url(#paint9_linear_44_443)"/>
<path d="M23.5912 490.14L0.00027388 507.945C0.138029 524.614 8.02462 540.249 21.3182 550.305L26.0364 553.853L67.0536 522.926L23.5912 490.14Z" fill="url(#paint10_linear_44_443)"/>
<path d="M23.5909 490.14L67.0533 457.354L108.07 426.427L112.789 422.88C126.22 412.755 134.141 396.913 134.141 380.072L134.141 344.944L67.0533 395.501L26.0361 426.427L21.3179 429.974C7.98991 439.996 0.137767 455.666 9.69035e-06 472.335C9.68433e-06 472.473 9.67681e-06 472.645 9.67079e-06 472.782L8.15486e-06 507.463C8.15486e-06 507.463 8.14131e-06 507.773 8.13529e-06 507.911L23.5909 490.105L23.5909 490.14Z" fill="url(#paint11_linear_44_443)"/>
<path d="M23.5912 489.564L67.0535 522.35L108.071 553.276L112.789 556.824C126.22 566.949 134.141 582.791 134.141 599.632L134.141 634.76L67.0535 584.203L26.0363 553.276L21.3182 549.729C7.99016 539.707 0.138013 524.037 0.000257844 507.369C0.00025785 507.231 0.000257858 507.059 0.000257864 506.921L0.00025938 472.241C0.00025938 472.241 0.000259393 471.931 0.000259399 471.793L23.5912 489.598L23.5912 489.564Z" fill="url(#paint12_linear_44_443)"/>
<path d="M23.5909 616.954L67.0533 584.168L108.07 553.242L112.789 549.695C126.22 539.569 134.141 523.727 134.141 506.886L134.141 471.758L67.0533 522.315L26.0361 553.242L21.3179 556.789C7.98991 566.811 0.137767 582.481 9.69035e-06 599.149C9.68433e-06 599.287 9.67681e-06 599.459 9.67079e-06 599.597L8.15486e-06 634.277C8.15486e-06 634.277 8.14131e-06 634.587 8.13529e-06 634.725L23.5909 616.92L23.5909 616.954Z" fill="url(#paint13_linear_44_443)"/>
</g>
<defs>
<linearGradient id="paint0_linear_44_443" x1="144.025" y1="108.697" x2="-16.7028" y2="-22.172" gradientUnits="userSpaceOnUse">
<stop stop-color="#2828C6"/>
<stop offset="1" stop-color="#0F0F3D"/>
</linearGradient>
<linearGradient id="paint1_linear_44_443" x1="57.5483" y1="179.332" x2="0.13803" y2="92.0631" gradientUnits="userSpaceOnUse">
<stop stop-color="#2828C6"/>
<stop offset="1" stop-color="#0F0F3D"/>
</linearGradient>
<linearGradient id="paint2_linear_44_443" x1="148.02" y1="-18.3837" x2="3.23752" y2="96.7813" gradientUnits="userSpaceOnUse">
<stop offset="0.31" stop-color="#FF5C35"/>
<stop offset="0.33" stop-color="#EE5740"/>
<stop offset="0.43" stop-color="#BA4B63"/>
<stop offset="0.53" stop-color="#8D4081"/>
<stop offset="0.62" stop-color="#68379A"/>
<stop offset="0.72" stop-color="#4C30AD"/>
<stop offset="0.81" stop-color="#382BBB"/>
<stop offset="0.91" stop-color="#2C28C3"/>
<stop offset="1" stop-color="#2828C6"/>
</linearGradient>
<linearGradient id="paint3_linear_44_443" x1="144.025" y1="235.512" x2="-16.7028" y2="104.643" gradientUnits="userSpaceOnUse">
<stop stop-color="#2828C6"/>
<stop offset="1" stop-color="#0F0F3D"/>
</linearGradient>
<linearGradient id="paint4_linear_44_443" x1="57.5483" y1="306.147" x2="0.13803" y2="218.878" gradientUnits="userSpaceOnUse">
<stop stop-color="#2828C6"/>
<stop offset="1" stop-color="#0F0F3D"/>
</linearGradient>
<linearGradient id="paint5_linear_44_443" x1="148.02" y1="108.431" x2="3.2373" y2="223.596" gradientUnits="userSpaceOnUse">
<stop offset="0.31" stop-color="#FF5C35"/>
<stop offset="0.33" stop-color="#EE5740"/>
<stop offset="0.43" stop-color="#BA4B63"/>
<stop offset="0.53" stop-color="#8D4081"/>
<stop offset="0.62" stop-color="#68379A"/>
<stop offset="0.72" stop-color="#4C30AD"/>
<stop offset="0.81" stop-color="#382BBB"/>
<stop offset="0.91" stop-color="#2C28C3"/>
<stop offset="1" stop-color="#2828C6"/>
</linearGradient>
<linearGradient id="paint6_linear_44_443" x1="144.025" y1="362.327" x2="-16.7028" y2="231.457" gradientUnits="userSpaceOnUse">
<stop stop-color="#2828C6"/>
<stop offset="1" stop-color="#0F0F3D"/>
</linearGradient>
<linearGradient id="paint7_linear_44_443" x1="57.5483" y1="432.962" x2="0.13803" y2="345.692" gradientUnits="userSpaceOnUse">
<stop stop-color="#2828C6"/>
<stop offset="1" stop-color="#0F0F3D"/>
</linearGradient>
<linearGradient id="paint8_linear_44_443" x1="148.02" y1="235.246" x2="3.2373" y2="350.41" gradientUnits="userSpaceOnUse">
<stop offset="0.31" stop-color="#FF5C35"/>
<stop offset="0.33" stop-color="#EE5740"/>
<stop offset="0.43" stop-color="#BA4B63"/>
<stop offset="0.53" stop-color="#8D4081"/>
<stop offset="0.62" stop-color="#68379A"/>
<stop offset="0.72" stop-color="#4C30AD"/>
<stop offset="0.81" stop-color="#382BBB"/>
<stop offset="0.91" stop-color="#2C28C3"/>
<stop offset="1" stop-color="#2828C6"/>
</linearGradient>
<linearGradient id="paint9_linear_44_443" x1="144.025" y1="489.141" x2="-16.7028" y2="358.272" gradientUnits="userSpaceOnUse">
<stop stop-color="#2828C6"/>
<stop offset="1" stop-color="#0F0F3D"/>
</linearGradient>
<linearGradient id="paint10_linear_44_443" x1="57.5483" y1="559.776" x2="0.13803" y2="472.507" gradientUnits="userSpaceOnUse">
<stop stop-color="#2828C6"/>
<stop offset="1" stop-color="#0F0F3D"/>
</linearGradient>
<linearGradient id="paint11_linear_44_443" x1="148.02" y1="362.06" x2="3.2373" y2="477.225" gradientUnits="userSpaceOnUse">
<stop offset="0.31" stop-color="#FF5C35"/>
<stop offset="0.33" stop-color="#EE5740"/>
<stop offset="0.43" stop-color="#BA4B63"/>
<stop offset="0.53" stop-color="#8D4081"/>
<stop offset="0.62" stop-color="#68379A"/>
<stop offset="0.72" stop-color="#4C30AD"/>
<stop offset="0.81" stop-color="#382BBB"/>
<stop offset="0.91" stop-color="#2C28C3"/>
<stop offset="1" stop-color="#2828C6"/>
</linearGradient>
<linearGradient id="paint12_linear_44_443" x1="144.025" y1="615.956" x2="-16.7028" y2="485.087" gradientUnits="userSpaceOnUse">
<stop stop-color="#2828C6"/>
<stop offset="1" stop-color="#0F0F3D"/>
</linearGradient>
<linearGradient id="paint13_linear_44_443" x1="148.02" y1="488.875" x2="3.2373" y2="604.04" gradientUnits="userSpaceOnUse">
<stop offset="0.31" stop-color="#FF5C35"/>
<stop offset="0.33" stop-color="#EE5740"/>
<stop offset="0.43" stop-color="#BA4B63"/>
<stop offset="0.53" stop-color="#8D4081"/>
<stop offset="0.62" stop-color="#68379A"/>
<stop offset="0.72" stop-color="#4C30AD"/>
<stop offset="0.81" stop-color="#382BBB"/>
<stop offset="0.91" stop-color="#2C28C3"/>
<stop offset="1" stop-color="#2828C6"/>
</linearGradient>
</defs>
</svg>
