<svg width="207" height="194" viewBox="0 0 207 194" fill="none" xmlns="http://www.w3.org/2000/svg">
<path d="M109.728 24.5002C124.067 24.5002 138.084 28.7523 150.007 36.7187C161.929 44.685 171.222 56.0079 176.709 69.2555C182.197 82.5031 183.632 97.0804 180.835 111.144C178.037 125.208 171.132 138.126 160.993 148.265C150.854 158.404 137.936 165.309 123.872 168.107C109.809 170.904 95.2313 169.468 81.9837 163.981C68.7361 158.494 57.4132 149.201 49.4468 137.279C41.4804 125.356 37.2284 111.339 37.2284 97H109.728V24.5002Z" fill="#FF5C35"/>
<circle cx="109.728" cy="97" r="71.9998" stroke="#FF5C35" stroke-dasharray="2 2"/>
<path d="M13.3137 95.5858C14.0947 94.8047 15.3611 94.8047 16.1421 95.5858L28.87 108.314C29.6511 109.095 29.6511 110.361 28.87 111.142C28.089 111.923 26.8227 111.923 26.0416 111.142L14.7279 99.8284L3.4142 111.142C2.63315 111.923 1.36682 111.923 0.585771 111.142C-0.195278 110.361 -0.195278 109.095 0.585771 108.314L13.3137 95.5858ZM30.7383 149.779L29.0754 150.89V150.89L30.7383 149.779ZM73.373 184.769L74.1383 182.921V182.921L73.373 184.769ZM128.261 190.175L128.652 192.136V192.136L128.261 190.175ZM176.903 164.175L178.317 165.589V165.589L176.903 164.175ZM202.902 115.534L204.864 115.924V115.924L202.902 115.534ZM197.496 60.6451L199.344 59.8797V59.8797L197.496 60.6451ZM162.507 18.0104L161.396 19.6733V19.6733L162.507 18.0104ZM14.7279 97L16.7279 97C16.7279 115.394 22.1823 133.374 32.4012 148.668L30.7383 149.779L29.0754 150.89C18.4169 134.939 12.7279 116.185 12.7279 97L14.7279 97ZM30.7383 149.779L32.4012 148.668C42.6202 163.962 57.1448 175.882 74.1383 182.921L73.373 184.769L72.6076 186.616C54.8832 179.275 39.7338 166.842 29.0754 150.89L30.7383 149.779ZM73.373 184.769L74.1383 182.921C91.1319 189.96 109.831 191.801 127.871 188.213L128.261 190.175L128.652 192.136C109.835 195.879 90.332 193.958 72.6076 186.616L73.373 184.769ZM128.261 190.175L127.871 188.213C145.912 184.625 162.483 175.767 175.489 162.761L176.903 164.175L178.317 165.589C164.752 179.155 147.468 188.393 128.652 192.136L128.261 190.175ZM176.903 164.175L175.489 162.761C188.495 149.755 197.352 133.184 200.941 115.143L202.902 115.534L204.864 115.924C201.121 134.74 191.883 152.024 178.317 165.589L176.903 164.175ZM202.902 115.534L200.941 115.143C204.529 97.1031 202.688 78.404 195.649 61.4104L197.496 60.6451L199.344 59.8797C206.686 77.6041 208.607 97.1076 204.864 115.924L202.902 115.534ZM197.496 60.6451L195.649 61.4104C188.61 44.4169 176.69 29.8923 161.396 19.6733L162.507 18.0104L163.618 16.3474C179.57 27.0059 192.002 42.1553 199.344 59.8797L197.496 60.6451ZM162.507 18.0104L161.396 19.6733C146.102 9.45435 128.122 4 109.728 4L109.728 2L109.728 -1.13286e-06C128.913 -1.36164e-06 147.667 5.68895 163.618 16.3474L162.507 18.0104Z" fill="url(#paint0_linear_45_731)"/>
<path d="M87.3861 116.62C86.7781 116.62 86.2141 116.512 85.6941 116.296C85.1821 116.072 84.7341 115.764 84.3501 115.372C83.9661 114.972 83.6701 114.512 83.4621 113.992C83.2541 113.464 83.1501 112.9 83.1501 112.3C83.1501 111.7 83.2541 111.14 83.4621 110.62C83.6701 110.092 83.9661 109.632 84.3501 109.24C84.7341 108.848 85.1821 108.54 85.6941 108.316C86.2141 108.092 86.7781 107.98 87.3861 107.98C88.0661 107.98 88.6541 108.092 89.1501 108.316C89.6461 108.54 90.0861 108.844 90.4701 109.228L89.5341 110.164C89.2861 109.892 88.9821 109.68 88.6221 109.528C88.2701 109.376 87.8581 109.3 87.3861 109.3C86.9701 109.3 86.5901 109.372 86.2461 109.516C85.9021 109.66 85.6021 109.868 85.3461 110.14C85.0981 110.404 84.9061 110.72 84.7701 111.088C84.6341 111.456 84.5661 111.86 84.5661 112.3C84.5661 112.74 84.6341 113.144 84.7701 113.512C84.9061 113.88 85.0981 114.2 85.3461 114.472C85.6021 114.736 85.9021 114.94 86.2461 115.084C86.5901 115.228 86.9701 115.3 87.3861 115.3C87.8981 115.3 88.3301 115.224 88.6821 115.072C89.0421 114.912 89.3461 114.696 89.5941 114.424L90.5301 115.36C90.1461 115.752 89.6941 116.06 89.1741 116.284C88.6541 116.508 88.0581 116.62 87.3861 116.62ZM95.0015 116.62C94.3695 116.62 93.8015 116.476 93.2975 116.188C92.7935 115.9 92.3935 115.508 92.0975 115.012C91.8095 114.508 91.6655 113.94 91.6655 113.308V108.1H93.0455V113.296C93.0455 113.704 93.1295 114.06 93.2975 114.364C93.4735 114.66 93.7095 114.892 94.0055 115.06C94.3015 115.22 94.6335 115.3 95.0015 115.3C95.3775 115.3 95.7095 115.22 95.9975 115.06C96.2855 114.892 96.5135 114.66 96.6815 114.364C96.8495 114.06 96.9335 113.708 96.9335 113.308V108.1H98.3135V113.32C98.3135 113.952 98.1695 114.516 97.8815 115.012C97.5935 115.508 97.2015 115.9 96.7055 116.188C96.2095 116.476 95.6415 116.62 95.0015 116.62ZM100.995 112.936V111.796H103.119C103.543 111.796 103.871 111.688 104.103 111.472C104.343 111.248 104.463 110.94 104.463 110.548C104.463 110.196 104.347 109.9 104.115 109.66C103.883 109.42 103.555 109.3 103.131 109.3H100.995V108.1H103.191C103.719 108.1 104.183 108.208 104.583 108.424C104.983 108.632 105.291 108.92 105.507 109.288C105.731 109.648 105.843 110.06 105.843 110.524C105.843 111.012 105.731 111.436 105.507 111.796C105.291 112.156 104.983 112.436 104.583 112.636C104.183 112.836 103.719 112.936 103.191 112.936H100.995ZM100.047 116.5V108.1H101.427V116.5H100.047ZM104.655 116.5L101.715 112.852L102.999 112.384L106.395 116.5H104.655ZM108.366 112.936V111.796H110.49C110.914 111.796 111.242 111.688 111.474 111.472C111.714 111.248 111.834 110.94 111.834 110.548C111.834 110.196 111.718 109.9 111.486 109.66C111.254 109.42 110.926 109.3 110.502 109.3H108.366V108.1H110.562C111.09 108.1 111.554 108.208 111.954 108.424C112.354 108.632 112.662 108.92 112.878 109.288C113.102 109.648 113.214 110.06 113.214 110.524C113.214 111.012 113.102 111.436 112.878 111.796C112.662 112.156 112.354 112.436 111.954 112.636C111.554 112.836 111.09 112.936 110.562 112.936H108.366ZM107.418 116.5V108.1H108.798V116.5H107.418ZM112.026 116.5L109.086 112.852L110.37 112.384L113.766 116.5H112.026ZM114.789 116.5V108.1H116.169V116.5H114.789ZM115.737 116.5V115.24H120.441V116.5H115.737ZM115.737 112.816V111.604H120.033V112.816H115.737ZM115.737 109.36V108.1H120.381V109.36H115.737ZM121.867 116.5V108.1H122.827L123.247 109.684V116.5H121.867ZM127.687 116.5L122.659 109.936L122.827 108.1L127.855 114.664L127.687 116.5ZM127.687 116.5L127.267 115.024V108.1H128.647V116.5H127.687ZM132.581 116.5V108.34H133.961V116.5H132.581ZM129.845 109.36V108.1H136.697V109.36H129.845ZM69.4419 130.5V129.24H71.6499C72.2259 129.24 72.7299 129.116 73.1619 128.868C73.6019 128.62 73.9419 128.276 74.1819 127.836C74.4299 127.388 74.5539 126.872 74.5539 126.288C74.5539 125.712 74.4299 125.204 74.1819 124.764C73.9339 124.324 73.5899 123.98 73.1499 123.732C72.7179 123.484 72.2179 123.36 71.6499 123.36H69.4419V122.1H71.6859C72.2939 122.1 72.8579 122.208 73.3779 122.424C73.8979 122.632 74.3499 122.928 74.7339 123.312C75.1259 123.688 75.4299 124.132 75.6459 124.644C75.8619 125.148 75.9699 125.7 75.9699 126.3C75.9699 126.892 75.8619 127.444 75.6459 127.956C75.4299 128.468 75.1299 128.916 74.7459 129.3C74.3619 129.676 73.9099 129.972 73.3899 130.188C72.8699 130.396 72.3099 130.5 71.7099 130.5H69.4419ZM68.4939 130.5V122.1H69.8739V130.5H68.4939ZM77.3767 130.5V122.1H78.7567V130.5H77.3767ZM82.7519 130.62C82.0879 130.62 81.5239 130.5 81.0599 130.26C80.5959 130.02 80.1799 129.668 79.8119 129.204L80.7479 128.268C80.9799 128.604 81.2559 128.868 81.5759 129.06C81.8959 129.244 82.3039 129.336 82.7999 129.336C83.2639 129.336 83.6319 129.24 83.9039 129.048C84.1839 128.856 84.3239 128.592 84.3239 128.256C84.3239 127.976 84.2519 127.748 84.1079 127.572C83.9639 127.396 83.7719 127.252 83.5319 127.14C83.2999 127.02 83.0399 126.916 82.7519 126.828C82.4719 126.732 82.1879 126.628 81.8999 126.516C81.6199 126.396 81.3599 126.248 81.1199 126.072C80.8879 125.896 80.6999 125.668 80.5559 125.388C80.4119 125.108 80.3399 124.752 80.3399 124.32C80.3399 123.824 80.4599 123.404 80.6999 123.06C80.9479 122.708 81.2799 122.44 81.6959 122.256C82.1119 122.072 82.5759 121.98 83.0879 121.98C83.6399 121.98 84.1319 122.088 84.5639 122.304C85.0039 122.52 85.3599 122.796 85.6319 123.132L84.6959 124.068C84.4559 123.796 84.2039 123.596 83.9399 123.468C83.6839 123.332 83.3879 123.264 83.0519 123.264C82.6359 123.264 82.3079 123.348 82.0679 123.516C81.8359 123.684 81.7199 123.92 81.7199 124.224C81.7199 124.48 81.7919 124.688 81.9359 124.848C82.0799 125 82.2679 125.132 82.4999 125.244C82.7399 125.348 82.9999 125.448 83.2799 125.544C83.5679 125.64 83.8519 125.748 84.1319 125.868C84.4199 125.988 84.6799 126.144 84.9119 126.336C85.1519 126.52 85.3439 126.76 85.4879 127.056C85.6319 127.352 85.7039 127.724 85.7039 128.172C85.7039 128.924 85.4359 129.52 84.8999 129.96C84.3719 130.4 83.6559 130.62 82.7519 130.62ZM87.0798 130.5V122.1H88.4598V130.5H87.0798ZM88.0278 130.5V129.24H92.7318V130.5H88.0278ZM88.0278 126.816V125.604H92.3238V126.816H88.0278ZM88.0278 123.36V122.1H92.6718V123.36H88.0278ZM93.534 130.5L96.99 122.1H97.95L101.382 130.5H99.894L97.206 123.696H97.71L94.998 130.5H93.534ZM95.238 128.88V127.68H99.69V128.88H95.238ZM104.631 130.62C103.967 130.62 103.403 130.5 102.939 130.26C102.475 130.02 102.059 129.668 101.691 129.204L102.627 128.268C102.859 128.604 103.135 128.868 103.455 129.06C103.775 129.244 104.183 129.336 104.679 129.336C105.143 129.336 105.511 129.24 105.783 129.048C106.063 128.856 106.203 128.592 106.203 128.256C106.203 127.976 106.131 127.748 105.987 127.572C105.843 127.396 105.651 127.252 105.411 127.14C105.179 127.02 104.919 126.916 104.631 126.828C104.351 126.732 104.067 126.628 103.779 126.516C103.499 126.396 103.239 126.248 102.999 126.072C102.767 125.896 102.579 125.668 102.435 125.388C102.291 125.108 102.219 124.752 102.219 124.32C102.219 123.824 102.339 123.404 102.579 123.06C102.827 122.708 103.159 122.44 103.575 122.256C103.991 122.072 104.455 121.98 104.967 121.98C105.519 121.98 106.011 122.088 106.443 122.304C106.883 122.52 107.239 122.796 107.511 123.132L106.575 124.068C106.335 123.796 106.083 123.596 105.819 123.468C105.563 123.332 105.267 123.264 104.931 123.264C104.515 123.264 104.187 123.348 103.947 123.516C103.715 123.684 103.599 123.92 103.599 124.224C103.599 124.48 103.671 124.688 103.815 124.848C103.959 125 104.147 125.132 104.379 125.244C104.619 125.348 104.879 125.448 105.159 125.544C105.447 125.64 105.731 125.748 106.011 125.868C106.299 125.988 106.559 126.144 106.791 126.336C107.031 126.52 107.223 126.76 107.367 127.056C107.511 127.352 107.583 127.724 107.583 128.172C107.583 128.924 107.315 129.52 106.779 129.96C106.251 130.4 105.535 130.62 104.631 130.62ZM108.959 130.5V122.1H110.339V130.5H108.959ZM109.907 130.5V129.24H114.611V130.5H109.907ZM109.907 126.816V125.604H114.203V126.816H109.907ZM109.907 123.36V122.1H114.551V123.36H109.907ZM120.779 130.62C120.115 130.62 119.551 130.5 119.087 130.26C118.623 130.02 118.207 129.668 117.839 129.204L118.775 128.268C119.007 128.604 119.283 128.868 119.603 129.06C119.923 129.244 120.331 129.336 120.827 129.336C121.291 129.336 121.659 129.24 121.931 129.048C122.211 128.856 122.351 128.592 122.351 128.256C122.351 127.976 122.279 127.748 122.135 127.572C121.991 127.396 121.799 127.252 121.559 127.14C121.327 127.02 121.067 126.916 120.779 126.828C120.499 126.732 120.215 126.628 119.927 126.516C119.647 126.396 119.387 126.248 119.147 126.072C118.915 125.896 118.727 125.668 118.583 125.388C118.439 125.108 118.367 124.752 118.367 124.32C118.367 123.824 118.487 123.404 118.727 123.06C118.975 122.708 119.307 122.44 119.723 122.256C120.139 122.072 120.603 121.98 121.115 121.98C121.667 121.98 122.159 122.088 122.591 122.304C123.031 122.52 123.387 122.796 123.659 123.132L122.723 124.068C122.483 123.796 122.231 123.596 121.967 123.468C121.711 123.332 121.415 123.264 121.079 123.264C120.663 123.264 120.335 123.348 120.095 123.516C119.863 123.684 119.747 123.92 119.747 124.224C119.747 124.48 119.819 124.688 119.963 124.848C120.107 125 120.295 125.132 120.527 125.244C120.767 125.348 121.027 125.448 121.307 125.544C121.595 125.64 121.879 125.748 122.159 125.868C122.447 125.988 122.707 126.144 122.939 126.336C123.179 126.52 123.371 126.76 123.515 127.056C123.659 127.352 123.731 127.724 123.731 128.172C123.731 128.924 123.463 129.52 122.927 129.96C122.399 130.4 121.683 130.62 120.779 130.62ZM126.856 130.5V122.34H128.236V130.5H126.856ZM124.12 123.36V122.1H130.972V123.36H124.12ZM130.389 130.5L133.845 122.1H134.805L138.237 130.5H136.749L134.061 123.696H134.565L131.853 130.5H130.389ZM132.093 128.88V127.68H136.545V128.88H132.093ZM140.391 130.5V122.34H141.771V130.5H140.391ZM137.655 123.36V122.1H144.507V123.36H137.655ZM145.709 130.5V122.1H147.089V130.5H145.709ZM146.657 130.5V129.24H151.361V130.5H146.657ZM146.657 126.816V125.604H150.953V126.816H146.657ZM146.657 123.36V122.1H151.301V123.36H146.657Z" fill="white"/>
<defs>
<linearGradient id="paint0_linear_45_731" x1="49.8724" y1="204.301" x2="115.006" y2="-7.28868" gradientUnits="userSpaceOnUse">
<stop stop-color="#FF5C35"/>
<stop offset="0.973628" stop-color="#472D83"/>
</linearGradient>
</defs>
</svg>
