<svg width="700" height="184" viewBox="0 0 700 184" fill="none" xmlns="http://www.w3.org/2000/svg">
<rect x="1" y="1" width="698" height="182" rx="19" stroke="#2828C6" stroke-width="2"/>
<path d="M24.98 38H23.72C23.48 38 23.36 37.8867 23.36 37.66V27.04C23.36 26.9067 23.2933 26.84 23.16 26.84H20.64C20.4 26.84 20.28 26.7267 20.28 26.5V25.48C20.28 25.2533 20.4 25.14 20.64 25.14H28.06C28.3 25.14 28.42 25.2533 28.42 25.48V26.5C28.42 26.7267 28.3 26.84 28.06 26.84H25.54C25.3933 26.84 25.32 26.9067 25.32 27.04V37.66C25.32 37.8867 25.2067 38 24.98 38ZM38.0719 38H31.6719C31.4452 38 31.3319 37.8867 31.3319 37.66V25.48C31.3319 25.2533 31.4452 25.14 31.6719 25.14H38.0719C38.2852 25.14 38.3919 25.2533 38.3919 25.48V26.5C38.3919 26.7267 38.2852 26.84 38.0719 26.84H33.5119C33.3519 26.84 33.2719 26.9067 33.2719 27.04V30.42C33.2719 30.5533 33.3519 30.62 33.5119 30.62H37.3719C37.6119 30.62 37.7319 30.7333 37.7319 30.96V31.98C37.7319 32.2067 37.6119 32.32 37.3719 32.32H33.5119C33.3519 32.32 33.2719 32.3867 33.2719 32.52V36.08C33.2719 36.2267 33.3519 36.3 33.5119 36.3H38.0719C38.2852 36.3 38.3919 36.4133 38.3919 36.64V37.66C38.3919 37.8867 38.2852 38 38.0719 38ZM48.9613 38H42.4812C42.2546 38 42.1412 37.8867 42.1412 37.66V25.48C42.1412 25.2533 42.2546 25.14 42.4812 25.14H43.7412C43.9679 25.14 44.0812 25.2533 44.0812 25.48V36.06C44.0812 36.1933 44.1612 36.26 44.3212 36.26H48.9613C49.1879 36.26 49.3013 36.38 49.3013 36.62V37.66C49.3013 37.8867 49.1879 38 48.9613 38ZM59.1652 38H52.6852C52.4585 38 52.3452 37.8867 52.3452 37.66V25.48C52.3452 25.2533 52.4585 25.14 52.6852 25.14H53.9452C54.1718 25.14 54.2852 25.2533 54.2852 25.48V36.06C54.2852 36.1933 54.3652 36.26 54.5252 36.26H59.1652C59.3918 36.26 59.5052 36.38 59.5052 36.62V37.66C59.5052 37.8867 59.3918 38 59.1652 38ZM75.2347 25.14H76.4947C76.7347 25.14 76.8547 25.2467 76.8547 25.46V34.9C76.8547 35.8733 76.5747 36.6333 76.0147 37.18C75.468 37.7267 74.708 38 73.7347 38H71.5147C70.5414 38 69.7814 37.7267 69.2347 37.18C68.688 36.6333 68.4147 35.8733 68.4147 34.9V25.48C68.4147 25.2533 68.528 25.14 68.7547 25.14H70.0147C70.2414 25.14 70.3547 25.2533 70.3547 25.48V34.82C70.3547 35.8067 70.8347 36.3 71.7947 36.3H73.4347C74.408 36.3 74.8947 35.8067 74.8947 34.82V25.48C74.8947 25.2533 75.008 25.14 75.2347 25.14ZM80.6075 34.88V34.36C80.6075 34.1333 80.7208 34.02 80.9475 34.02H82.2275C82.4542 34.02 82.5675 34.1333 82.5675 34.36V34.72C82.5675 35.28 82.6875 35.6867 82.9275 35.94C83.1808 36.18 83.5942 36.3 84.1675 36.3H85.5475C86.1208 36.3 86.5342 36.1733 86.7875 35.92C87.0408 35.6533 87.1675 35.2267 87.1675 34.64V34.18C87.1675 33.7533 87.0008 33.42 86.6675 33.18C86.3475 32.9267 85.9475 32.7667 85.4675 32.7C84.9875 32.62 84.4608 32.5133 83.8875 32.38C83.3142 32.2467 82.7875 32.0933 82.3075 31.92C81.8275 31.7467 81.4208 31.42 81.0875 30.94C80.7675 30.46 80.6075 29.8467 80.6075 29.1V28.26C80.6075 27.2867 80.8808 26.5267 81.4275 25.98C81.9875 25.42 82.7542 25.14 83.7275 25.14H85.8475C86.8342 25.14 87.6008 25.42 88.1475 25.98C88.7075 26.5267 88.9875 27.2867 88.9875 28.26V28.7C88.9875 28.9267 88.8742 29.04 88.6475 29.04H87.3675C87.1408 29.04 87.0275 28.9267 87.0275 28.7V28.44C87.0275 27.8667 86.9008 27.46 86.6475 27.22C86.4075 26.9667 86.0008 26.84 85.4275 26.84H84.1675C83.5942 26.84 83.1808 26.9733 82.9275 27.24C82.6875 27.4933 82.5675 27.9333 82.5675 28.56V29.18C82.5675 29.78 83.0008 30.1867 83.8675 30.4C84.2542 30.4933 84.6742 30.5733 85.1275 30.64C85.5942 30.7067 86.0608 30.8067 86.5275 30.94C86.9942 31.0733 87.4208 31.2533 87.8075 31.48C88.1942 31.6933 88.5075 32.0267 88.7475 32.48C88.9875 32.92 89.1075 33.46 89.1075 34.1V34.88C89.1075 35.8533 88.8275 36.62 88.2675 37.18C87.7208 37.7267 86.9608 38 85.9875 38H83.7475C82.7742 38 82.0075 37.7267 81.4475 37.18C80.8875 36.62 80.6075 35.8533 80.6075 34.88ZM100.57 38H99.3102C99.0835 38 98.9702 37.8867 98.9702 37.66V25.48C98.9702 25.2533 99.0835 25.14 99.3102 25.14H100.57C100.797 25.14 100.91 25.2533 100.91 25.48V30.48C100.91 30.6133 100.99 30.68 101.15 30.68H105.37C105.503 30.68 105.57 30.6133 105.57 30.48V25.48C105.57 25.2533 105.683 25.14 105.91 25.14H107.19C107.417 25.14 107.53 25.2533 107.53 25.48V37.66C107.53 37.8867 107.417 38 107.19 38H105.91C105.683 38 105.57 37.8867 105.57 37.66V32.6C105.57 32.4667 105.503 32.4 105.37 32.4H101.15C100.99 32.4 100.91 32.4667 100.91 32.6V37.66C100.91 37.8867 100.797 38 100.57 38ZM114.835 36.3H116.575C117.548 36.3 118.035 35.8067 118.035 34.82V28.32C118.035 27.3333 117.548 26.84 116.575 26.84H114.835C113.875 26.84 113.395 27.3333 113.395 28.32V34.82C113.395 35.8067 113.875 36.3 114.835 36.3ZM116.875 38H114.555C113.568 38 112.801 37.7267 112.255 37.18C111.721 36.6333 111.455 35.8733 111.455 34.9V28.24C111.455 27.2533 111.721 26.4933 112.255 25.96C112.801 25.4133 113.568 25.14 114.555 25.14H116.875C117.861 25.14 118.628 25.4133 119.175 25.96C119.721 26.4933 119.995 27.2533 119.995 28.24V34.9C119.995 35.8733 119.721 36.6333 119.175 37.18C118.628 37.7267 117.861 38 116.875 38ZM127.77 38H125.65C125.41 38 125.27 37.8867 125.23 37.66L122.85 25.48C122.823 25.2533 122.936 25.14 123.19 25.14H124.73C124.983 25.14 125.116 25.2533 125.13 25.48L126.75 35.96H126.87L129.23 25.44C129.256 25.24 129.376 25.14 129.59 25.14H131.27C131.483 25.14 131.61 25.24 131.65 25.44L134.03 35.96H134.15L135.77 25.5C135.783 25.26 135.916 25.14 136.17 25.14H137.71C137.976 25.14 138.09 25.26 138.05 25.5L135.67 37.66C135.63 37.8867 135.496 38 135.27 38H133.15C132.923 38 132.79 37.8867 132.75 37.66L130.49 27.54H130.41L128.15 37.66C128.11 37.8867 127.983 38 127.77 38ZM151.35 38H150.07C149.844 38 149.73 37.8867 149.73 37.66V33.24L145.99 25.5C145.937 25.3933 145.937 25.3067 145.99 25.24C146.044 25.1733 146.117 25.14 146.21 25.14H147.81C147.984 25.14 148.117 25.2533 148.21 25.48L150.67 30.98H150.79L153.21 25.48C153.29 25.2533 153.424 25.14 153.61 25.14H155.21C155.317 25.14 155.39 25.1733 155.43 25.24C155.484 25.3067 155.484 25.3933 155.43 25.5L151.69 33.24V37.66C151.69 37.8867 151.577 38 151.35 38ZM161.627 36.3H163.367C164.34 36.3 164.827 35.8067 164.827 34.82V28.32C164.827 27.3333 164.34 26.84 163.367 26.84H161.627C160.667 26.84 160.187 27.3333 160.187 28.32V34.82C160.187 35.8067 160.667 36.3 161.627 36.3ZM163.667 38H161.347C160.36 38 159.593 37.7267 159.047 37.18C158.513 36.6333 158.247 35.8733 158.247 34.9V28.24C158.247 27.2533 158.513 26.4933 159.047 25.96C159.593 25.4133 160.36 25.14 161.347 25.14H163.667C164.653 25.14 165.42 25.4133 165.967 25.96C166.513 26.4933 166.787 27.2533 166.787 28.24V34.9C166.787 35.8733 166.513 36.6333 165.967 37.18C165.42 37.7267 164.653 38 163.667 38ZM177.402 25.14H178.662C178.902 25.14 179.022 25.2467 179.022 25.46V34.9C179.022 35.8733 178.742 36.6333 178.182 37.18C177.635 37.7267 176.875 38 175.902 38H173.682C172.709 38 171.949 37.7267 171.402 37.18C170.855 36.6333 170.582 35.8733 170.582 34.9V25.48C170.582 25.2533 170.695 25.14 170.922 25.14H172.182C172.409 25.14 172.522 25.2533 172.522 25.48V34.82C172.522 35.8067 173.002 36.3 173.962 36.3H175.602C176.575 36.3 177.062 35.8067 177.062 34.82V25.48C177.062 25.2533 177.175 25.14 177.402 25.14ZM183.555 29.06H183.295C183.068 29.06 182.948 28.9533 182.935 28.74L182.555 25.9C182.515 25.7133 182.615 25.62 182.855 25.62H183.995C184.115 25.62 184.195 25.6467 184.235 25.7C184.288 25.74 184.308 25.8067 184.295 25.9L183.915 28.76C183.875 28.96 183.755 29.06 183.555 29.06ZM190.105 36.3H192.925C193.885 36.3 194.365 35.8067 194.365 34.82V28.32C194.365 27.3333 193.885 26.84 192.925 26.84H190.105C189.958 26.84 189.885 26.9067 189.885 27.04V36.08C189.885 36.2267 189.958 36.3 190.105 36.3ZM187.945 37.66V25.48C187.945 25.2533 188.058 25.14 188.285 25.14H193.205C194.178 25.14 194.938 25.4133 195.485 25.96C196.045 26.4933 196.325 27.2533 196.325 28.24V34.9C196.325 35.8733 196.045 36.6333 195.485 37.18C194.938 37.7267 194.178 38 193.205 38H188.285C188.058 38 187.945 37.8867 187.945 37.66ZM213.025 38H206.545C206.318 38 206.205 37.8867 206.205 37.66V25.48C206.205 25.2533 206.318 25.14 206.545 25.14H207.805C208.031 25.14 208.145 25.2533 208.145 25.48V36.06C208.145 36.1933 208.225 36.26 208.385 36.26H213.025C213.251 36.26 213.365 36.38 213.365 36.62V37.66C213.365 37.8867 213.251 38 213.025 38ZM218.448 25.48V37.66C218.448 37.8867 218.335 38 218.108 38H216.848C216.622 38 216.508 37.8867 216.508 37.66V25.48C216.508 25.2533 216.622 25.14 216.848 25.14H218.108C218.335 25.14 218.448 25.2533 218.448 25.48ZM224.267 38H223.007C222.78 38 222.667 37.8867 222.667 37.66V25.48C222.667 25.2533 222.78 25.14 223.007 25.14H224.267C224.494 25.14 224.607 25.2533 224.607 25.48V31.82H224.667C224.8 31.46 224.974 31.1267 225.187 30.82L229.007 25.48C229.154 25.2533 229.367 25.14 229.647 25.14H231.127C231.407 25.14 231.454 25.2667 231.267 25.52L227.367 30.82L231.767 37.6C231.927 37.8667 231.847 38 231.527 38H230.407C230.047 38 229.794 37.8867 229.647 37.66L226.187 32.24L224.607 34.1V37.66C224.607 37.8867 224.494 38 224.267 38ZM241.564 38H235.164C234.937 38 234.824 37.8867 234.824 37.66V25.48C234.824 25.2533 234.937 25.14 235.164 25.14H241.564C241.777 25.14 241.884 25.2533 241.884 25.48V26.5C241.884 26.7267 241.777 26.84 241.564 26.84H237.004C236.844 26.84 236.764 26.9067 236.764 27.04V30.42C236.764 30.5533 236.844 30.62 237.004 30.62H240.864C241.104 30.62 241.224 30.7333 241.224 30.96V31.98C241.224 32.2067 241.104 32.32 240.864 32.32H237.004C236.844 32.32 236.764 32.3867 236.764 32.52V36.08C236.764 36.2267 236.844 36.3 237.004 36.3H241.564C241.777 36.3 241.884 36.4133 241.884 36.64V37.66C241.884 37.8867 241.777 38 241.564 38ZM255.119 38H253.859C253.619 38 253.499 37.8867 253.499 37.66V27.04C253.499 26.9067 253.432 26.84 253.299 26.84H250.779C250.539 26.84 250.419 26.7267 250.419 26.5V25.48C250.419 25.2533 250.539 25.14 250.779 25.14H258.199C258.439 25.14 258.559 25.2533 258.559 25.48V26.5C258.559 26.7267 258.439 26.84 258.199 26.84H255.679C255.532 26.84 255.459 26.9067 255.459 27.04V37.66C255.459 37.8867 255.346 38 255.119 38ZM264.651 36.3H266.391C267.364 36.3 267.851 35.8067 267.851 34.82V28.32C267.851 27.3333 267.364 26.84 266.391 26.84H264.651C263.691 26.84 263.211 27.3333 263.211 28.32V34.82C263.211 35.8067 263.691 36.3 264.651 36.3ZM266.691 38H264.371C263.384 38 262.618 37.7267 262.071 37.18C261.538 36.6333 261.271 35.8733 261.271 34.9V28.24C261.271 27.2533 261.538 26.4933 262.071 25.96C262.618 25.4133 263.384 25.14 264.371 25.14H266.691C267.678 25.14 268.444 25.4133 268.991 25.96C269.538 26.4933 269.811 27.2533 269.811 28.24V34.9C269.811 35.8733 269.538 36.6333 268.991 37.18C268.444 37.7267 267.678 38 266.691 38ZM284.712 38H282.572C281.585 38 280.818 37.7267 280.272 37.18C279.738 36.6333 279.472 35.8733 279.472 34.9V28.24C279.472 27.2533 279.738 26.4933 280.272 25.96C280.818 25.4133 281.585 25.14 282.572 25.14H284.712C285.698 25.14 286.458 25.4133 286.992 25.96C287.538 26.4933 287.812 27.2533 287.812 28.24V28.96C287.812 29.2 287.698 29.32 287.472 29.32H286.212C285.985 29.32 285.872 29.2 285.872 28.96V28.32C285.872 27.3333 285.392 26.84 284.432 26.84H282.852C281.892 26.84 281.412 27.3333 281.412 28.32V34.82C281.412 35.8067 281.892 36.3 282.852 36.3H284.432C285.392 36.3 285.872 35.8067 285.872 34.82V33.02C285.872 32.8867 285.798 32.82 285.652 32.82H284.032C283.805 32.82 283.692 32.7067 283.692 32.48V31.46C283.692 31.2333 283.805 31.12 284.032 31.12H287.392C287.672 31.12 287.812 31.26 287.812 31.54V34.9C287.812 35.8733 287.538 36.6333 286.992 37.18C286.445 37.7267 285.685 38 284.712 38ZM298.471 38H292.071C291.844 38 291.731 37.8867 291.731 37.66V25.48C291.731 25.2533 291.844 25.14 292.071 25.14H298.471C298.684 25.14 298.791 25.2533 298.791 25.48V26.5C298.791 26.7267 298.684 26.84 298.471 26.84H293.911C293.751 26.84 293.671 26.9067 293.671 27.04V30.42C293.671 30.5533 293.751 30.62 293.911 30.62H297.771C298.011 30.62 298.131 30.7333 298.131 30.96V31.98C298.131 32.2067 298.011 32.32 297.771 32.32H293.911C293.751 32.32 293.671 32.3867 293.671 32.52V36.08C293.671 36.2267 293.751 36.3 293.911 36.3H298.471C298.684 36.3 298.791 36.4133 298.791 36.64V37.66C298.791 37.8867 298.684 38 298.471 38ZM306.06 38H304.8C304.56 38 304.44 37.8867 304.44 37.66V27.04C304.44 26.9067 304.374 26.84 304.24 26.84H301.72C301.48 26.84 301.36 26.7267 301.36 26.5V25.48C301.36 25.2533 301.48 25.14 301.72 25.14H309.14C309.38 25.14 309.5 25.2533 309.5 25.48V26.5C309.5 26.7267 309.38 26.84 309.14 26.84H306.62C306.474 26.84 306.4 26.9067 306.4 27.04V37.66C306.4 37.8867 306.287 38 306.06 38ZM320.418 25.48V37.66C320.418 37.8867 320.305 38 320.078 38H318.818C318.591 38 318.478 37.8867 318.478 37.66V25.48C318.478 25.2533 318.591 25.14 318.818 25.14H320.078C320.305 25.14 320.418 25.2533 320.418 25.48ZM326.217 38H324.977C324.75 38 324.637 37.8867 324.637 37.66V25.48C324.637 25.2533 324.75 25.14 324.977 25.14H326.097C326.31 25.14 326.457 25.2133 326.537 25.36L331.377 34.06H331.457V25.48C331.457 25.2533 331.57 25.14 331.797 25.14H333.037C333.263 25.14 333.377 25.2533 333.377 25.48V37.66C333.377 37.8867 333.263 38 333.037 38H331.957C331.743 38 331.57 37.8933 331.437 37.68L326.637 29.08H326.557V37.66C326.557 37.8867 326.443 38 326.217 38ZM342.177 38H340.197C339.97 38 339.83 37.8867 339.777 37.66L336.457 25.52C336.377 25.2667 336.477 25.14 336.757 25.14H338.177C338.39 25.14 338.517 25.2533 338.557 25.48L341.137 35.92H341.217L343.777 25.48C343.83 25.2533 343.963 25.14 344.177 25.14H345.577C345.857 25.14 345.963 25.2667 345.897 25.52L342.557 37.66C342.503 37.8867 342.377 38 342.177 38ZM352.131 36.3H353.871C354.844 36.3 355.331 35.8067 355.331 34.82V28.32C355.331 27.3333 354.844 26.84 353.871 26.84H352.131C351.171 26.84 350.691 27.3333 350.691 28.32V34.82C350.691 35.8067 351.171 36.3 352.131 36.3ZM354.171 38H351.851C350.864 38 350.097 37.7267 349.551 37.18C349.017 36.6333 348.751 35.8733 348.751 34.9V28.24C348.751 27.2533 349.017 26.4933 349.551 25.96C350.097 25.4133 350.864 25.14 351.851 25.14H354.171C355.157 25.14 355.924 25.4133 356.471 25.96C357.017 26.4933 357.291 27.2533 357.291 28.24V34.9C357.291 35.8733 357.017 36.6333 356.471 37.18C355.924 37.7267 355.157 38 354.171 38ZM368.006 38H361.526C361.299 38 361.186 37.8867 361.186 37.66V25.48C361.186 25.2533 361.299 25.14 361.526 25.14H362.786C363.012 25.14 363.126 25.2533 363.126 25.48V36.06C363.126 36.1933 363.206 36.26 363.366 36.26H368.006C368.232 36.26 368.346 36.38 368.346 36.62V37.66C368.346 37.8867 368.232 38 368.006 38ZM376.07 38H374.09C373.863 38 373.723 37.8867 373.67 37.66L370.35 25.52C370.27 25.2667 370.37 25.14 370.65 25.14H372.07C372.283 25.14 372.41 25.2533 372.45 25.48L375.03 35.92H375.11L377.67 25.48C377.723 25.2533 377.856 25.14 378.07 25.14H379.47C379.75 25.14 379.856 25.2667 379.79 25.52L376.45 37.66C376.396 37.8867 376.27 38 376.07 38ZM389.584 38H383.184C382.957 38 382.844 37.8867 382.844 37.66V25.48C382.844 25.2533 382.957 25.14 383.184 25.14H389.584C389.797 25.14 389.904 25.2533 389.904 25.48V26.5C389.904 26.7267 389.797 26.84 389.584 26.84H385.024C384.864 26.84 384.784 26.9067 384.784 27.04V30.42C384.784 30.5533 384.864 30.62 385.024 30.62H388.884C389.124 30.62 389.244 30.7333 389.244 30.96V31.98C389.244 32.2067 389.124 32.32 388.884 32.32H385.024C384.864 32.32 384.784 32.3867 384.784 32.52V36.08C384.784 36.2267 384.864 36.3 385.024 36.3H389.584C389.797 36.3 389.904 36.4133 389.904 36.64V37.66C389.904 37.8867 389.797 38 389.584 38ZM395.813 36.3H398.633C399.593 36.3 400.073 35.8067 400.073 34.82V28.32C400.073 27.3333 399.593 26.84 398.633 26.84H395.813C395.666 26.84 395.593 26.9067 395.593 27.04V36.08C395.593 36.2267 395.666 36.3 395.813 36.3ZM393.653 37.66V25.48C393.653 25.2533 393.766 25.14 393.993 25.14H398.913C399.886 25.14 400.646 25.4133 401.193 25.96C401.753 26.4933 402.033 27.2533 402.033 28.24V34.9C402.033 35.8733 401.753 36.6333 401.193 37.18C400.646 37.7267 399.886 38 398.913 38H393.993C393.766 38 393.653 37.8867 393.653 37.66ZM407.487 28.12V30.56C407.487 30.7867 407.38 30.9 407.167 30.9H405.807C405.58 30.9 405.467 30.7733 405.467 30.52V28.14C405.467 27.9133 405.58 27.8 405.807 27.8H407.167C407.38 27.8 407.487 27.9067 407.487 28.12ZM407.487 35.22V37.66C407.487 37.8867 407.38 38 407.167 38H405.807C405.58 38 405.467 37.88 405.467 37.64V35.22C405.467 35.0067 405.58 34.9 405.807 34.9H407.167C407.38 34.9 407.487 35.0067 407.487 35.22Z" fill="#2828C6"/>
<rect x="20" y="59" width="189" height="38" rx="12" fill="#F0F4F8"/>
<path d="M30.912 75V66.6H31.872L32.292 68.184V75H30.912ZM36.732 75L31.704 68.436L31.872 66.6L36.9 73.164L36.732 75ZM36.732 75L36.312 73.524V66.6H37.692V75H36.732ZM38.8896 75L42.3456 66.6H43.3056L46.7376 75H45.2496L42.5616 68.196H43.0656L40.3536 75H38.8896ZM40.5936 73.38V72.18H45.0456V73.38H40.5936ZM47.8456 75V66.6H48.8056L52.2976 72.348H51.6736L55.1656 66.6H56.1256V75H54.7456V69.024L55.0576 69.108L52.4656 73.368H51.5056L48.9136 69.108L49.2256 69.024V75H47.8456ZM57.9472 75V66.6H59.3272V75H57.9472ZM58.8952 75V73.74H63.5992V75H58.8952ZM58.8952 71.316V70.104H63.1912V71.316H58.8952ZM58.8952 67.86V66.6H63.5392V67.86H58.8952ZM66.7773 71.076L66.7173 69.18L65.1693 70.224L64.6173 69.156L66.3693 68.52L64.9173 67.392L65.7693 66.54L66.8973 67.992L67.5333 66.24L68.6133 66.792L67.5573 68.34L69.4533 68.4L69.2613 69.588L67.4493 69.06L67.9773 70.884L66.7773 71.076Z" fill="#2828C6"/>
<rect x="219" y="59" width="189" height="38" rx="12" fill="#F0F4F8"/>
<path d="M233.776 75.12C233.176 75.12 232.616 75.008 232.096 74.784C231.576 74.56 231.12 74.252 230.728 73.86C230.336 73.46 230.028 73 229.804 72.48C229.588 71.952 229.48 71.388 229.48 70.788C229.48 70.188 229.588 69.628 229.804 69.108C230.028 68.588 230.332 68.132 230.716 67.74C231.108 67.34 231.56 67.032 232.072 66.816C232.592 66.592 233.152 66.48 233.752 66.48C234.352 66.48 234.908 66.592 235.42 66.816C235.94 67.032 236.396 67.34 236.788 67.74C237.18 68.132 237.484 68.592 237.7 69.12C237.924 69.64 238.036 70.2 238.036 70.8C238.036 71.4 237.924 71.964 237.7 72.492C237.484 73.012 237.18 73.468 236.788 73.86C236.404 74.252 235.952 74.56 235.432 74.784C234.92 75.008 234.368 75.12 233.776 75.12ZM233.752 73.8C234.32 73.8 234.816 73.672 235.24 73.416C235.672 73.16 236.008 72.808 236.248 72.36C236.496 71.904 236.62 71.38 236.62 70.788C236.62 70.348 236.548 69.948 236.404 69.588C236.268 69.22 236.072 68.904 235.816 68.64C235.56 68.368 235.256 68.16 234.904 68.016C234.56 67.872 234.176 67.8 233.752 67.8C233.192 67.8 232.696 67.928 232.264 68.184C231.84 68.432 231.504 68.78 231.256 69.228C231.016 69.676 230.896 70.196 230.896 70.788C230.896 71.228 230.964 71.636 231.1 72.012C231.244 72.38 231.44 72.696 231.688 72.96C231.944 73.224 232.248 73.432 232.6 73.584C232.952 73.728 233.336 73.8 233.752 73.8ZM240.387 71.436V70.296H242.511C242.935 70.296 243.263 70.188 243.495 69.972C243.735 69.748 243.855 69.44 243.855 69.048C243.855 68.696 243.739 68.4 243.507 68.16C243.275 67.92 242.947 67.8 242.523 67.8H240.387V66.6H242.583C243.111 66.6 243.575 66.708 243.975 66.924C244.375 67.132 244.683 67.42 244.899 67.788C245.123 68.148 245.235 68.56 245.235 69.024C245.235 69.512 245.123 69.936 244.899 70.296C244.683 70.656 244.375 70.936 243.975 71.136C243.575 71.336 243.111 71.436 242.583 71.436H240.387ZM239.439 75V66.6H240.819V75H239.439ZM244.047 75L241.107 71.352L242.391 70.884L245.787 75H244.047ZM250.497 75.12C249.921 75.12 249.377 75.008 248.865 74.784C248.353 74.56 247.905 74.252 247.521 73.86C247.137 73.46 246.833 73 246.609 72.48C246.393 71.952 246.285 71.388 246.285 70.788C246.285 70.188 246.393 69.628 246.609 69.108C246.833 68.588 247.137 68.132 247.521 67.74C247.913 67.34 248.369 67.032 248.889 66.816C249.417 66.592 249.985 66.48 250.593 66.48C251.257 66.48 251.873 66.608 252.441 66.864C253.009 67.12 253.485 67.484 253.869 67.956L252.933 68.892C252.685 68.54 252.353 68.272 251.937 68.088C251.521 67.896 251.073 67.8 250.593 67.8C250.017 67.8 249.509 67.928 249.069 68.184C248.637 68.432 248.301 68.78 248.061 69.228C247.821 69.676 247.701 70.196 247.701 70.788C247.701 71.38 247.821 71.904 248.061 72.36C248.309 72.808 248.641 73.16 249.057 73.416C249.473 73.672 249.945 73.8 250.473 73.8C251.033 73.8 251.513 73.7 251.913 73.5C252.321 73.292 252.633 72.988 252.849 72.588C253.065 72.18 253.173 71.68 253.173 71.088L254.037 71.712H250.449V70.452H254.601V70.644C254.601 71.644 254.421 72.476 254.061 73.14C253.709 73.804 253.225 74.3 252.609 74.628C251.993 74.956 251.289 75.12 250.497 75.12ZM254.964 75L258.42 66.6H259.38L262.812 75H261.324L258.636 68.196H259.14L256.428 75H254.964ZM256.668 73.38V72.18H261.12V73.38H256.668ZM263.92 75V66.6H264.88L265.3 68.184V75H263.92ZM269.74 75L264.712 68.436L264.88 66.6L269.908 73.164L269.74 75ZM269.74 75L269.32 73.524V66.6H270.7V75H269.74ZM272.521 75V66.6H273.901V75H272.521ZM275.217 74.04L279.801 67.56H281.421L276.837 74.04H275.217ZM275.217 75V74.04L276.405 73.74H281.325V75H275.217ZM275.493 67.86V66.6H281.421V67.56L280.221 67.86H275.493ZM281.823 75L285.279 66.6H286.239L289.671 75H288.183L285.495 68.196H285.999L283.287 75H281.823ZM283.527 73.38V72.18H287.979V73.38H283.527ZM291.825 75V66.84H293.205V75H291.825ZM289.089 67.86V66.6H295.941V67.86H289.089ZM297.142 75V66.6H298.522V75H297.142ZM304.206 75.12C303.606 75.12 303.046 75.008 302.526 74.784C302.006 74.56 301.55 74.252 301.158 73.86C300.766 73.46 300.458 73 300.234 72.48C300.018 71.952 299.91 71.388 299.91 70.788C299.91 70.188 300.018 69.628 300.234 69.108C300.458 68.588 300.762 68.132 301.146 67.74C301.538 67.34 301.99 67.032 302.502 66.816C303.022 66.592 303.582 66.48 304.182 66.48C304.782 66.48 305.338 66.592 305.85 66.816C306.37 67.032 306.826 67.34 307.218 67.74C307.61 68.132 307.914 68.592 308.13 69.12C308.354 69.64 308.466 70.2 308.466 70.8C308.466 71.4 308.354 71.964 308.13 72.492C307.914 73.012 307.61 73.468 307.218 73.86C306.834 74.252 306.382 74.56 305.862 74.784C305.35 75.008 304.798 75.12 304.206 75.12ZM304.182 73.8C304.75 73.8 305.246 73.672 305.67 73.416C306.102 73.16 306.438 72.808 306.678 72.36C306.926 71.904 307.05 71.38 307.05 70.788C307.05 70.348 306.978 69.948 306.834 69.588C306.698 69.22 306.502 68.904 306.246 68.64C305.99 68.368 305.686 68.16 305.334 68.016C304.99 67.872 304.606 67.8 304.182 67.8C303.622 67.8 303.126 67.928 302.694 68.184C302.27 68.432 301.934 68.78 301.686 69.228C301.446 69.676 301.326 70.196 301.326 70.788C301.326 71.228 301.394 71.636 301.53 72.012C301.674 72.38 301.87 72.696 302.118 72.96C302.374 73.224 302.678 73.432 303.03 73.584C303.382 73.728 303.766 73.8 304.182 73.8ZM309.869 75V66.6H310.829L311.249 68.184V75H309.869ZM315.689 75L310.661 68.436L310.829 66.6L315.857 73.164L315.689 75ZM315.689 75L315.269 73.524V66.6H316.649V75H315.689Z" fill="#2828C6"/>
<rect x="418" y="59" width="262" height="38" rx="12" fill="#F0F4F8"/>
<path d="M428.912 75V66.6H430.292V75H428.912ZM429.86 75V73.74H434.564V75H429.86ZM429.86 71.316V70.104H434.156V71.316H429.86ZM429.86 67.86V66.6H434.504V67.86H429.86ZM435.99 75V66.6H436.95L440.442 72.348H439.818L443.31 66.6H444.27V75H442.89V69.024L443.202 69.108L440.61 73.368H439.65L437.058 69.108L437.37 69.024V75H435.99ZM445.468 75L448.924 66.6H449.884L453.316 75H451.828L449.14 68.196H449.644L446.932 75H445.468ZM447.172 73.38V72.18H451.624V73.38H447.172ZM454.424 75V66.6H455.804V75H454.424ZM457.623 75V66.6H459.003V75H457.623ZM458.571 75V73.74H462.963V75H458.571ZM464.965 71.076L464.905 69.18L463.357 70.224L462.805 69.156L464.557 68.52L463.105 67.392L463.957 66.54L465.085 67.992L465.721 66.24L466.801 66.792L465.745 68.34L467.641 68.4L467.449 69.588L465.637 69.06L466.165 70.884L464.965 71.076Z" fill="#2828C6"/>
<rect x="20" y="112" width="325" height="52" rx="12" fill="#F0F4F8"/>
<path d="M30.912 128V119.6H31.872L35.364 125.348H34.74L38.232 119.6H39.192V128H37.812V122.024L38.124 122.108L35.532 126.368H34.572L31.98 122.108L32.292 122.024V128H30.912ZM41.0136 128V119.6H42.3936V128H41.0136ZM41.9616 128V126.74H46.6656V128H41.9616ZM41.9616 124.316V123.104H46.2576V124.316H41.9616ZM41.9616 120.86V119.6H46.6056V120.86H41.9616ZM50.2208 128.12C49.5568 128.12 48.9928 128 48.5288 127.76C48.0648 127.52 47.6488 127.168 47.2808 126.704L48.2168 125.768C48.4488 126.104 48.7248 126.368 49.0448 126.56C49.3648 126.744 49.7728 126.836 50.2688 126.836C50.7328 126.836 51.1008 126.74 51.3728 126.548C51.6528 126.356 51.7928 126.092 51.7928 125.756C51.7928 125.476 51.7208 125.248 51.5768 125.072C51.4328 124.896 51.2408 124.752 51.0008 124.64C50.7688 124.52 50.5088 124.416 50.2208 124.328C49.9408 124.232 49.6568 124.128 49.3688 124.016C49.0888 123.896 48.8288 123.748 48.5888 123.572C48.3568 123.396 48.1688 123.168 48.0248 122.888C47.8808 122.608 47.8088 122.252 47.8088 121.82C47.8088 121.324 47.9288 120.904 48.1688 120.56C48.4168 120.208 48.7488 119.94 49.1648 119.756C49.5808 119.572 50.0448 119.48 50.5568 119.48C51.1088 119.48 51.6008 119.588 52.0328 119.804C52.4728 120.02 52.8288 120.296 53.1008 120.632L52.1648 121.568C51.9248 121.296 51.6728 121.096 51.4088 120.968C51.1528 120.832 50.8568 120.764 50.5208 120.764C50.1048 120.764 49.7768 120.848 49.5368 121.016C49.3048 121.184 49.1888 121.42 49.1888 121.724C49.1888 121.98 49.2608 122.188 49.4048 122.348C49.5488 122.5 49.7368 122.632 49.9688 122.744C50.2088 122.848 50.4688 122.948 50.7488 123.044C51.0368 123.14 51.3208 123.248 51.6008 123.368C51.8888 123.488 52.1488 123.644 52.3808 123.836C52.6208 124.02 52.8128 124.26 52.9568 124.556C53.1008 124.852 53.1728 125.224 53.1728 125.672C53.1728 126.424 52.9048 127.02 52.3688 127.46C51.8408 127.9 51.1248 128.12 50.2208 128.12ZM56.6778 128.12C56.0138 128.12 55.4498 128 54.9858 127.76C54.5218 127.52 54.1058 127.168 53.7378 126.704L54.6738 125.768C54.9058 126.104 55.1818 126.368 55.5018 126.56C55.8218 126.744 56.2298 126.836 56.7258 126.836C57.1898 126.836 57.5578 126.74 57.8298 126.548C58.1098 126.356 58.2498 126.092 58.2498 125.756C58.2498 125.476 58.1778 125.248 58.0338 125.072C57.8898 124.896 57.6978 124.752 57.4578 124.64C57.2258 124.52 56.9658 124.416 56.6778 124.328C56.3978 124.232 56.1138 124.128 55.8258 124.016C55.5458 123.896 55.2858 123.748 55.0458 123.572C54.8138 123.396 54.6258 123.168 54.4818 122.888C54.3378 122.608 54.2658 122.252 54.2658 121.82C54.2658 121.324 54.3858 120.904 54.6258 120.56C54.8738 120.208 55.2058 119.94 55.6218 119.756C56.0378 119.572 56.5018 119.48 57.0138 119.48C57.5658 119.48 58.0578 119.588 58.4898 119.804C58.9298 120.02 59.2858 120.296 59.5578 120.632L58.6218 121.568C58.3818 121.296 58.1298 121.096 57.8658 120.968C57.6098 120.832 57.3138 120.764 56.9778 120.764C56.5618 120.764 56.2338 120.848 55.9938 121.016C55.7618 121.184 55.6458 121.42 55.6458 121.724C55.6458 121.98 55.7178 122.188 55.8618 122.348C56.0058 122.5 56.1938 122.632 56.4258 122.744C56.6658 122.848 56.9258 122.948 57.2058 123.044C57.4938 123.14 57.7778 123.248 58.0578 123.368C58.3458 123.488 58.6058 123.644 58.8378 123.836C59.0778 124.02 59.2698 124.26 59.4138 124.556C59.5578 124.852 59.6298 125.224 59.6298 125.672C59.6298 126.424 59.3618 127.02 58.8258 127.46C58.2978 127.9 57.5818 128.12 56.6778 128.12ZM60.1122 128L63.5682 119.6H64.5282L67.9602 128H66.4722L63.7842 121.196H64.2882L61.5762 128H60.1122ZM61.8162 126.38V125.18H66.2682V126.38H61.8162ZM72.3563 128.12C71.7803 128.12 71.2363 128.008 70.7243 127.784C70.2123 127.56 69.7643 127.252 69.3803 126.86C68.9963 126.46 68.6923 126 68.4683 125.48C68.2523 124.952 68.1443 124.388 68.1443 123.788C68.1443 123.188 68.2523 122.628 68.4683 122.108C68.6923 121.588 68.9963 121.132 69.3803 120.74C69.7723 120.34 70.2283 120.032 70.7483 119.816C71.2763 119.592 71.8443 119.48 72.4523 119.48C73.1163 119.48 73.7323 119.608 74.3003 119.864C74.8683 120.12 75.3443 120.484 75.7283 120.956L74.7923 121.892C74.5443 121.54 74.2123 121.272 73.7963 121.088C73.3803 120.896 72.9323 120.8 72.4523 120.8C71.8763 120.8 71.3683 120.928 70.9283 121.184C70.4963 121.432 70.1603 121.78 69.9203 122.228C69.6803 122.676 69.5603 123.196 69.5603 123.788C69.5603 124.38 69.6803 124.904 69.9203 125.36C70.1683 125.808 70.5003 126.16 70.9163 126.416C71.3323 126.672 71.8043 126.8 72.3323 126.8C72.8923 126.8 73.3723 126.7 73.7723 126.5C74.1803 126.292 74.4923 125.988 74.7083 125.588C74.9243 125.18 75.0323 124.68 75.0323 124.088L75.8963 124.712H72.3083V123.452H76.4603V123.644C76.4603 124.644 76.2803 125.476 75.9203 126.14C75.5683 126.804 75.0843 127.3 74.4683 127.628C73.8523 127.956 73.1483 128.12 72.3563 128.12ZM77.8339 128V119.6H79.2139V128H77.8339ZM78.7819 128V126.74H83.4859V128H78.7819ZM78.7819 124.316V123.104H83.0779V124.316H78.7819ZM78.7819 120.86V119.6H83.4259V120.86H78.7819Z" fill="#2828C6"/>
<rect x="355" y="112" width="325" height="52" rx="8" fill="#2828C6"/>
<path d="M480.087 145V131.12H481.967V145H480.087ZM481.367 145V143.28H488.807V145H481.367ZM494.792 145.2C493.846 145.2 492.992 144.987 492.232 144.56C491.472 144.12 490.872 143.527 490.432 142.78C489.992 142.033 489.772 141.187 489.772 140.24C489.772 139.307 489.986 138.467 490.412 137.72C490.852 136.973 491.439 136.387 492.172 135.96C492.919 135.52 493.752 135.3 494.672 135.3C495.552 135.3 496.326 135.5 496.992 135.9C497.672 136.3 498.199 136.853 498.572 137.56C498.959 138.267 499.152 139.067 499.152 139.96C499.152 140.093 499.146 140.24 499.132 140.4C499.119 140.547 499.092 140.72 499.052 140.92H491.032V139.42H498.092L497.432 140C497.432 139.36 497.319 138.82 497.092 138.38C496.866 137.927 496.546 137.58 496.132 137.34C495.719 137.087 495.219 136.96 494.632 136.96C494.019 136.96 493.479 137.093 493.012 137.36C492.546 137.627 492.186 138 491.932 138.48C491.679 138.96 491.552 139.527 491.552 140.18C491.552 140.847 491.686 141.433 491.952 141.94C492.219 142.433 492.599 142.82 493.092 143.1C493.586 143.367 494.152 143.5 494.792 143.5C495.326 143.5 495.812 143.407 496.252 143.22C496.706 143.033 497.092 142.753 497.412 142.38L498.572 143.56C498.119 144.093 497.559 144.5 496.892 144.78C496.239 145.06 495.539 145.2 494.792 145.2ZM502.282 145V131.52H504.082V145H502.282ZM499.942 137.14V135.5H506.422V137.14H499.942ZM508.665 135.6L508.245 130.72H510.225L509.805 135.6H508.665ZM515.092 145.2C514.559 145.2 514.052 145.133 513.572 145C513.105 144.853 512.672 144.653 512.272 144.4C511.872 144.133 511.525 143.82 511.232 143.46L512.392 142.3C512.739 142.727 513.139 143.047 513.592 143.26C514.045 143.46 514.552 143.56 515.112 143.56C515.672 143.56 516.105 143.467 516.412 143.28C516.719 143.08 516.872 142.807 516.872 142.46C516.872 142.113 516.745 141.847 516.492 141.66C516.252 141.46 515.939 141.3 515.552 141.18C515.165 141.047 514.752 140.92 514.312 140.8C513.885 140.667 513.479 140.5 513.092 140.3C512.705 140.1 512.385 139.827 512.132 139.48C511.892 139.133 511.772 138.673 511.772 138.1C511.772 137.527 511.912 137.033 512.192 136.62C512.472 136.193 512.859 135.867 513.352 135.64C513.859 135.413 514.465 135.3 515.172 135.3C515.919 135.3 516.579 135.433 517.152 135.7C517.739 135.953 518.219 136.34 518.592 136.86L517.432 138.02C517.165 137.673 516.832 137.407 516.432 137.22C516.045 137.033 515.605 136.94 515.112 136.94C514.592 136.94 514.192 137.033 513.912 137.22C513.645 137.393 513.512 137.64 513.512 137.96C513.512 138.28 513.632 138.527 513.872 138.7C514.112 138.873 514.425 139.02 514.812 139.14C515.212 139.26 515.625 139.387 516.052 139.52C516.479 139.64 516.885 139.807 517.272 140.02C517.659 140.233 517.972 140.52 518.212 140.88C518.465 141.24 518.592 141.713 518.592 142.3C518.592 143.193 518.272 143.9 517.632 144.42C517.005 144.94 516.159 145.2 515.092 145.2ZM526.227 145V131.52H528.027V145H526.227ZM523.887 137.14V135.5H530.367V137.14H523.887ZM535.878 145.2C535.011 145.2 534.224 144.987 533.518 144.56C532.811 144.12 532.251 143.527 531.838 142.78C531.438 142.033 531.238 141.193 531.238 140.26C531.238 139.327 531.438 138.487 531.838 137.74C532.251 136.993 532.804 136.4 533.498 135.96C534.204 135.52 534.998 135.3 535.878 135.3C536.598 135.3 537.238 135.453 537.798 135.76C538.371 136.053 538.831 136.467 539.178 137C539.524 137.52 539.718 138.127 539.758 138.82V141.68C539.718 142.36 539.524 142.967 539.178 143.5C538.844 144.033 538.391 144.453 537.818 144.76C537.258 145.053 536.611 145.2 535.878 145.2ZM536.178 143.5C537.071 143.5 537.791 143.2 538.338 142.6C538.884 141.987 539.158 141.207 539.158 140.26C539.158 139.607 539.031 139.04 538.778 138.56C538.538 138.067 538.191 137.687 537.738 137.42C537.284 137.14 536.758 137 536.158 137C535.558 137 535.024 137.14 534.558 137.42C534.104 137.7 533.744 138.087 533.478 138.58C533.224 139.06 533.098 139.613 533.098 140.24C533.098 140.88 533.224 141.447 533.478 141.94C533.744 142.42 534.111 142.8 534.578 143.08C535.044 143.36 535.578 143.5 536.178 143.5ZM539.038 145V142.44L539.378 140.12L539.038 137.82V135.5H540.858V145H539.038ZM543.478 145V130.72H545.278V145H543.478ZM553.992 145L549.552 140.14L553.952 135.5H556.132L551.232 140.62L551.312 139.58L556.312 145H553.992ZM547.912 145V130.72H549.712V145H547.912Z" fill="white"/>
</svg>
