<svg width="86" height="129" viewBox="0 0 86 129" fill="none" xmlns="http://www.w3.org/2000/svg">
<path d="M37.2 106.6H49C53.2667 106.6 56.2667 105.733 58 104C59.7333 102.133 60.6 99.0666 60.6 94.8V33.8C60.6 29.5333 59.7333 26.5333 58 24.8C56.2667 22.9333 53.2667 22 49 22H37.2C32.9333 22 29.9333 22.9333 28.2 24.8C26.4667 26.5333 25.6 29.5333 25.6 33.8V94.8C25.6 99.0666 26.4667 102.133 28.2 104C29.9333 105.733 32.9333 106.6 37.2 106.6ZM53 128.6H33C22.4667 128.6 14.3333 125.8 8.59999 120.2C2.86666 114.6 -5.48363e-06 106.533 -5.48363e-06 96V32.6C-5.48363e-06 22.0666 2.86666 14 8.59999 8.39997C14.3333 2.79997 22.4667 -2.57492e-05 33 -2.57492e-05H53C63.4 -2.57492e-05 71.4667 2.86664 77.2 8.59997C82.9333 14.2 85.8 22.2 85.8 32.6V96C85.8 106.4 82.9333 114.467 77.2 120.2C71.4667 125.8 63.4 128.6 53 128.6Z" fill="url(#paint0_linear_2001_50)"/>
<defs>
<linearGradient id="paint0_linear_2001_50" x1="18.5445" y1="28.6" x2="89.9298" y2="83.9477" gradientUnits="userSpaceOnUse">
<stop offset="0.447115" stop-color="#EE5740"/>
<stop offset="1" stop-color="#2828C6"/>
</linearGradient>
</defs>
</svg>
