<svg width="520" height="6" viewBox="0 0 520 6" fill="none" xmlns="http://www.w3.org/2000/svg">
<path d="M4.95303 0.0305095C7.86696 -0.0476489 11.6867 0.0359211 14.5896 0.150626C15.4994 0.186202 15.0387 0.345226 15.6667 0.376944C16.895 0.438775 18.0393 0.360783 19.2531 0.434439C19.6554 0.459627 19.1547 0.711522 19.5765 0.732167C21.8879 0.84349 24.0746 0.77933 26.4161 0.832875C37.9496 1.09706 49.2867 1.19161 60.9613 1.30638C64.8107 1.34401 69.4902 1.57262 73.4662 1.47264C73.9303 1.46075 73.6536 1.23965 73.7419 1.22142C75.127 0.942449 74.6665 1.3888 75.5708 1.44811C79.1602 1.68226 83.1516 1.70263 86.6059 1.6173C88.0754 1.58035 86.602 1.14119 88.0817 1.38768C88.1845 1.40434 87.8116 1.63913 88.2146 1.66417C89.1286 1.72049 90.8626 1.67853 91.5709 1.69713C92.9361 1.73417 93.1619 1.73181 94.4532 1.73448C96.2183 1.74018 98.3178 1.8569 100.212 1.8037C100.616 1.79164 100.081 1.55096 100.725 1.51C101.371 1.46911 103.078 1.48951 103.653 1.54625C104.229 1.60302 103.984 1.7922 104.086 1.83556C104.924 2.20155 106.898 1.69465 107.152 1.68212C111.785 1.46852 115.757 1.75728 120.106 1.75646C123.407 1.75522 126.937 1.65989 130.077 1.67296C133.82 1.68947 136.991 1.81989 140.627 1.79747C141.01 1.79538 140.561 1.51239 141.029 1.50926C146.008 1.47633 150.952 1.50718 155.909 1.69823C156.406 1.71764 155.765 1.9661 156.262 2.00035C159.303 2.20455 164.114 2.69507 165.92 1.61327C167.98 1.65551 170.48 1.69916 172.323 1.91722C173.511 2.05757 172.357 2.32825 173.817 2.21275C174.146 2.18702 173.718 1.94997 174.212 1.92931C176.29 1.84253 178.561 1.91958 180.617 1.79711C181.035 1.77164 180.921 1.55923 181.039 1.52098C182.035 1.21122 183.693 1.72328 184.054 1.76048C186.807 2.03795 188.816 1.92876 191.38 1.93553C191.975 1.93722 191.272 1.65192 191.844 1.6433C194.813 1.60241 197.889 1.62693 200.796 1.75353C201.443 1.78237 200.848 2.0254 201.158 2.05162C202.52 2.16427 202.822 1.70525 204.129 1.80443C204.405 1.82475 204.249 2.0328 204.3 2.05565C205.086 2.41433 205.77 1.9061 205.972 1.89488C208.531 1.74157 210.167 2.27213 212.639 2.19701C212.935 2.18748 212.268 1.92424 213.099 1.91356C218.638 1.84089 224.495 1.9132 229.978 2.12376C230.83 2.15615 230.222 2.3539 230.275 2.37828C231.15 2.75918 231.715 2.24882 231.993 2.2296C234.186 2.09124 236.234 2.51924 237.724 1.91136C247.01 2.12232 256.254 1.78096 265.463 2.32555C265.58 2.33185 265.371 2.58321 265.604 2.59471C268.417 2.73584 267.877 2.34519 269.738 1.86742C270.207 1.74745 271.633 2.32428 271.759 2.36656C272.219 2.52237 271.742 2.89632 271.896 2.9265C273.17 3.16345 272.963 1.92678 274.681 1.92638C274.735 1.92844 274.509 2.15606 274.654 2.1787C275.102 2.24975 275.546 2.1593 275.985 2.23766C276.988 2.41896 277.346 3.01988 278.879 2.67015C279.073 2.62476 278.776 1.92327 280.311 1.95641C280.923 1.97021 283.63 1.95819 284.389 2.00365C285.147 2.04905 284.627 2.27511 284.681 2.2849C286.723 2.58382 285.949 2.7077 286.972 3.15025C287.995 3.59113 287.711 2.53959 288.129 2.42223C288.546 2.30519 290.044 2.55182 290.412 2.63756C290.779 2.72333 290.321 2.86697 290.648 2.91551C292.816 3.23264 291.6 2.39357 292.314 2.22667C293.998 1.83149 295.31 2.61131 296.853 2.68773C297.27 2.70836 296.929 2.53075 297.301 2.51414C298.772 2.45071 299.658 2.69404 301.332 2.47093C301.605 2.43457 302.959 1.96572 303.835 2.3098C303.959 2.35941 303.607 2.55374 304.234 2.59727C305.171 2.6626 306.859 2.70508 307.866 2.64012C308.609 2.59206 307.757 2.27185 308.693 2.37132C309.109 2.41574 308.338 2.60306 309.119 2.67088C309.897 2.73868 311.884 2.73045 312.64 2.72398C313.395 2.71737 312.982 2.47448 313.043 2.45811C313.412 2.36438 314.861 2.24725 314.989 2.24754C321.447 2.21789 327.402 2.62732 333.689 2.49181C334.182 2.48152 333.854 2.22539 333.929 2.22118C335.618 2.11386 334.286 2.79487 335.466 3.02281C335.296 2.50304 335.992 2.59715 337.182 2.54015C337.755 2.51225 337.443 2.31099 337.496 2.29039C338.346 1.9847 338.938 2.37954 339.09 2.46031C339.653 2.75743 340.266 2.40636 340.65 2.60496C341.033 2.80208 340.151 3.0943 341.292 3.09056C341.612 2.9045 340.765 2.41827 341.631 2.33946C344.9 2.04138 351.002 2.42288 353.63 2.46251C356.254 2.5021 357.101 2.46777 358.629 2.53502C361.39 2.6566 360.378 2.29585 362.093 2.13072C363.812 1.96562 362.976 2.85324 363.223 3.04405C363.466 3.23478 363.731 3.03844 364.033 3.14329C364.334 3.24812 363.682 3.37786 364.39 3.41722C365.098 3.45654 367.033 3.11722 367.284 2.91771C367.814 2.49501 366.942 2.05138 368.815 2.20726C368.923 2.21651 368.573 2.44991 368.986 2.47349C372.262 2.65317 375.666 2.66431 378.938 2.82323C379.388 2.84544 378.985 3.10509 379.247 3.12095C381.975 3.28703 381 2.84923 382.495 2.3629C382.159 3.01011 382.986 3.40607 385.055 3.40989C386.3 3.41242 386.085 3.12975 386.89 2.93052C387.132 2.87047 388.012 3.06456 388.172 2.93162C388.698 2.49708 387.868 2.01063 390.003 2.20433C390.096 2.21354 389.798 2.4514 390.122 2.4658C392.213 2.56009 392.463 2.10557 394.724 2.05052C396.496 2.00733 399.647 2.2845 401.665 2.32957C401.622 3.05722 403.528 2.8906 404.301 2.3889C405.61 2.40944 407.024 2.38108 408.29 2.45042C408.725 2.47407 408.439 2.68474 408.494 2.7075C409.336 3.06459 409.906 2.57649 410.188 2.55736C413.251 2.37134 415.747 2.74128 418.67 2.37975C418.774 2.36672 418.942 1.86128 419.724 2.23033C419.774 2.25577 418.809 2.48574 420.184 2.50352C421.559 2.52135 424.152 2.7923 426.061 2.55809C426.523 2.5017 427.692 2.09138 428.63 2.41197C428.755 2.4555 428.618 2.60047 428.799 2.68114C429.382 2.93817 429.7 2.42729 430.386 2.86131C431.071 3.29531 432.497 3.62035 434.422 3.3209C434.484 3.3122 434.94 2.90728 435.545 2.91368C436.512 2.92425 437.884 3.0086 438.894 3.00596C439.377 3.00456 439.068 2.75312 439.151 2.74852C442.401 2.60762 444.714 2.83178 448.195 2.92906C448.833 2.94739 450.667 2.60452 451.902 2.87559C453.259 3.17234 451.865 4.40674 454.983 4.11265C456.241 3.99502 457.833 2.42896 460.093 3.24034C464.476 3.03928 468.53 3.45454 472.925 3.16746C473.123 3.15474 473.748 2.71767 474.212 2.72362C474.902 2.73329 475.281 2.93758 475.774 2.95103C477.838 3.01257 479.726 2.83779 481.717 2.86497C482.472 2.87485 482.208 3.08608 483.109 3.09788C484.01 3.10949 484.61 2.83135 485.831 2.96568C486.752 3.06808 487.674 3.63659 488.897 3.70286C488.944 3.14208 489.784 3.15363 491.278 3.0056C491.565 2.97688 491.257 2.78169 491.393 2.75804C491.945 2.65744 492.457 2.81921 492.982 2.7097C493.109 2.6834 493.115 2.49189 493.22 2.45958C494.107 2.17754 495.569 2.60833 495.82 2.68333C496.783 2.96819 497.232 2.71911 497.971 2.83128C498.708 2.94344 497.606 3.08365 498.466 3.15172C500.251 3.2925 502.544 3.26157 504.356 3.27037C505.079 3.2727 504.586 3.01706 504.689 3.01146C506.184 2.94662 507.696 3.21854 508.526 2.70933C509.562 4.02596 509.427 2.58163 511.564 2.8452C511.733 2.86652 511.947 3.48914 511.301 3.58055C510.654 3.67187 509.674 3.47724 508.777 3.61973C508.565 3.65317 507.349 4.23661 507.183 4.27195C505.882 4.54816 505.698 3.61773 505.629 3.56663C504.849 3.01514 503.363 3.64368 502.971 3.68711C501.18 3.88612 499.659 3.75527 498.161 3.89732C497.181 3.98913 497.085 4.59859 496.316 4.57993C493.759 4.51827 492.866 3.66807 490.456 4.40525C489.94 4.56248 490.453 5.22861 488.602 4.70481C488.485 4.67179 487.111 4.19261 486.317 4.49571C486.217 4.53392 486.22 4.72805 486.089 4.74436C485.207 4.84985 484.619 4.69519 483.659 4.76926C482.698 4.84334 481.543 4.95376 480.447 4.88792C479.786 4.84854 478.938 4.48685 478.622 4.39829C477.729 4.1432 476.771 4.56145 476.218 4.25254C475.66 3.94208 476.751 3.4706 475.288 3.27C475.233 3.77437 475.109 4.29206 475.022 4.79929C471.815 4.78153 468.66 4.61844 465.443 4.64072C465.044 4.64399 465.452 4.91514 465.024 4.92564C463.22 4.96871 461.644 4.77542 459.773 4.85239C458.325 4.91302 456.737 5.20011 455.223 5.27244C454.298 4.69529 452.051 4.89122 450.419 4.83848C449.847 4.82025 449.885 4.66611 449.478 4.61582C447.944 4.42984 448.663 4.93985 448.243 5.02012C446.438 5.36267 446.284 4.20827 444.156 4.23679C444.044 4.23792 442.666 4.85326 442.476 4.89158C441.27 5.14145 442.276 4.6774 441.522 4.63194C440.144 4.54885 439.187 4.4019 437.57 4.58213C437.099 4.63552 435.969 5.01905 435.053 4.72239C434.933 4.68354 434.999 4.48015 434.902 4.46824C433.148 4.26969 433.102 4.90878 432.1 5.12522C431.097 5.34162 429.548 4.90044 429.233 4.77329C428.409 4.44436 429.865 4.63272 429.91 4.60044C430.434 4.2163 429.305 4.28244 428.442 4.24998C428.317 3.62335 427.11 3.66096 427.547 4.21885C427.597 4.27979 428.268 4.22135 428.442 4.24998C427.684 4.86479 426.358 4.94353 424.893 4.369C424.207 4.09972 424.855 3.78576 422.772 3.90061C421.827 3.95246 422.192 4.38393 421.358 4.50156C419.452 4.76996 416.975 4.36747 415.01 4.43089C414.297 4.45391 414.992 4.69009 414.505 4.71397C413.211 4.77806 412.07 4.60085 410.771 4.69163C410.654 4.70015 410.941 4.94739 410.537 4.95054C407.475 4.97925 404.808 4.82089 401.611 4.8165C400.066 4.8145 397.304 4.95085 395.704 4.92344C392.93 4.87738 389.518 4.51786 387.148 4.6052C385.603 4.66111 385.942 4.90839 385.28 5.07688C384.002 5.40348 381.74 4.81847 381.435 4.72788C381.426 4.72488 382.756 4.66659 382.046 4.53965C381.634 4.27515 381.45 4.72674 381.435 4.72788C381.235 4.66936 378.579 4.61323 378.051 4.6605C377.765 4.68633 377.925 4.92062 377.775 4.92966C374.223 5.13933 370.665 5.19888 367.062 5.08933C366.998 5.0846 367.094 4.82253 366.945 4.81467C364.859 4.69815 363.523 5.01874 361.803 5.20908C360.083 5.39934 358.719 5.33561 357.701 4.88572C356.403 4.94236 354.541 4.74347 353.47 4.62278C352.398 4.5021 352.249 5.01223 352.155 5.02231C349.214 5.3451 347.515 5.05311 344.464 5.00767C343.014 4.98519 340.137 5.05918 338.567 5.11497C337.326 5.15991 336.578 5.04035 335.435 5.1168C335.28 5.12701 335.436 5.35414 335.389 5.36289C334.113 5.63465 334.726 5.07937 334.463 4.9802C333.507 4.61956 332.917 4.42749 331.283 4.59715C330.906 4.636 329.808 5.43552 329.121 5.48227C328.227 5.5416 328.564 5.25502 327.629 5.32444C327.549 5.33012 327.565 5.50692 326.988 5.49912C324.308 5.46526 321.386 5.36238 318.601 5.3801C318.221 5.38184 318.709 5.66227 318.159 5.66941C315.58 5.70265 312.753 5.69227 310.24 5.56101C309.622 5.52782 310.009 5.33147 309.875 5.27317C309.051 4.92041 307.882 5.43296 307.689 5.44272C303.089 5.68903 299.568 5.22518 294.879 5.44602C294.624 5.45898 292.659 6.00844 291.782 5.53721C291.722 5.50585 290.855 5.02373 290.088 5.35337C290.041 5.37399 290.581 5.6222 289.638 5.5969C288.695 5.57166 287.177 5.73741 285.881 5.4647C285.471 5.37879 284.501 4.89786 283.277 5.28123C283.197 5.30799 281.307 6.17484 280.632 5.57676C280.523 5.47831 280.637 4.8454 279.176 5.1699C278.897 5.23281 279.404 5.37398 278.668 5.46213C277.542 5.598 276.049 5.42848 274.664 5.71042C274.422 5.76034 273.394 6.18992 272.569 5.86386C272.44 5.8128 272.685 5.6015 272.249 5.57786C270.178 5.46443 268.009 5.60576 265.906 5.45957C265.161 5.4082 265.542 5.06661 264.765 4.97507C263.988 4.88357 262.424 4.79554 261.611 4.95164C260.798 5.1078 261.686 5.65221 260.469 5.69577C255.175 5.88498 249.931 5.56561 244.645 5.5189C243.861 5.51192 244.511 5.70672 243.356 5.71042C239.096 5.72492 231.742 5.90757 228.046 5.49363C225.084 5.16208 228.811 4.90967 226.548 4.77476C225.456 4.7104 224.275 5.34333 224.011 5.36326C221.436 5.56567 219.646 5.28529 217.328 5.37131C216.85 5.38916 217.319 5.6457 216.912 5.65806C215.52 5.70254 214.058 5.58804 212.728 5.60898C212.132 5.61897 212.242 5.8149 211.693 5.79978C210.379 5.76585 209.218 5.68349 207.938 5.49985C207.821 5.48312 208.608 5.23939 207.636 5.23032C206.063 5.21634 204.111 5.03518 202.302 5.22227C201.765 5.27854 201.744 5.72634 200.59 5.41709C200.348 5.3525 200.657 4.81479 199.313 5.27939C199.087 5.3566 196.828 5.98326 195.72 5.57932C195.428 5.47301 194.682 5.033 194.036 5.10215C193.949 5.11318 194.299 5.35371 193.764 5.37717C191.879 5.45567 189.903 5.43001 187.966 5.50535C187.449 5.52594 188.219 5.77484 187.449 5.79758C185.329 5.86049 182.682 5.79712 180.609 5.71921C179.845 5.69002 180.373 5.48384 180.317 5.4614C179.423 5.09645 178.894 5.58905 178.597 5.61777C176.751 5.78976 175.346 5.55837 173.644 5.6196C173.175 5.63588 173.508 5.87075 173.414 5.8917C172.445 6.09633 173.167 5.67452 172.553 5.62803C170.834 5.49637 168.918 5.51525 167.18 5.54526C166.541 5.55663 167.259 5.82898 166.686 5.83603C163.294 5.88296 159.768 5.8569 156.458 5.70676C155.835 5.678 156.227 5.46828 156.097 5.42038C155.202 5.08527 153.89 5.54237 153.588 5.58591C152.215 5.78472 151.682 5.59927 150.469 5.63389C144.547 5.80623 137.235 5.6834 131.645 5.60752C124.36 5.50986 118.707 5.31035 111.76 5.36216C111.319 5.36519 111.764 5.64417 111.384 5.65036C106.47 5.71762 101.632 5.6086 96.7086 5.68918C96.3046 5.6953 96.887 5.95978 96.2385 5.97849C94.9083 6.01872 93.2233 6.00434 91.8784 5.9199C91.2224 5.87921 92.1023 5.65226 91.442 5.61594C89.9046 5.53085 88.2565 5.51202 86.6773 5.55442C86.0052 5.57304 87.0192 5.84353 86.1457 5.84665C80.1953 5.87349 74.3515 5.92007 68.3385 5.5698C67.9262 5.54574 67.5646 4.99599 66.6881 5.10142C66.6221 5.25399 66.6256 5.43346 66.5968 5.59653C57.9347 5.68438 49.361 5.4938 40.6745 5.46433C40.3083 5.46315 40.9412 5.75444 40.2322 5.75364C36.1283 5.74933 32.1432 5.83002 27.9455 5.5405C27.529 5.51219 27.7427 4.99974 26.5153 5.07725C26.2988 5.09139 24.4502 5.15973 23.9722 5.27097C23.9073 5.28775 24.2446 5.52694 23.6489 5.53391C20.1872 5.57023 16.5595 5.51563 13.1038 5.36948C12.5461 5.34544 13.14 5.09072 12.7428 5.07139C9.92501 4.93617 6.86005 5.1298 4.1675 4.89854C2.36521 4.74282 3.03247 4.30252 2.07476 3.86912C1.9393 3.80797 0.823264 3.79828 0.76555 3.54612C0.617382 2.91204 1.15795 2.21773 0.936144 1.54186C0.889282 1.39628 -0.605377 1.55308 0.279557 1.20128C0.341379 1.17774 1.42501 1.06098 1.69191 0.941639C1.87774 0.859129 1.54288 0.602682 1.92202 0.497061C2.30113 0.391539 2.71772 0.606507 3.34627 0.482412C3.97455 0.356782 3.69829 0.0650439 4.95303 0.0305095ZM348.646 4.08335C347.654 3.83837 347.507 4.73565 348.58 4.52097C348.632 4.50953 348.697 4.09537 348.646 4.08335ZM468.678 3.94163C467.381 3.54586 466.493 4.1278 467.409 4.43345C468.323 4.73877 469.073 4.0616 468.678 3.94163ZM482.127 3.65269C480.611 3.34065 480.373 4.61303 481.996 4.35581C482.091 4.34128 482.216 3.67081 482.127 3.65269ZM6.51614 3.74571C6.50245 3.73379 5.7002 3.72218 5.68103 3.73399C5.25384 4.01896 6.85801 4.04199 6.51614 3.74571ZM495.473 3.33812C495 3.166 493.637 3.36469 494.225 3.57872C494.699 3.7509 496.062 3.55222 495.473 3.33812ZM296.894 3.12571C296.879 3.11234 296.303 3.1003 296.315 3.17589C296.354 3.41932 297.154 3.35061 296.894 3.12571ZM518.156 3.32347C514.805 3.27557 512.773 2.22452 516.422 2.34312C517.083 2.36458 514.998 2.6783 515.839 2.77305C517.378 2.94569 518.401 2.28576 519.971 2.63939C520.256 2.70411 518.347 3.32854 518.15 3.32493C518.152 3.32444 518.154 3.32396 518.156 3.32347ZM348.074 3.0056C348.054 2.99373 347.258 2.98248 347.239 2.99425C346.808 3.27911 348.412 3.30194 348.074 3.0056ZM263.333 2.57091C263.289 2.54562 261.441 2.52198 261.381 2.54527C260.417 3.0111 264.153 3.06029 263.333 2.57091ZM401.696 2.34898C402.565 2.06241 403.604 2.02867 404.297 2.38853C403.433 2.36943 402.564 2.36662 401.696 2.34898Z" fill="#FF5C35"/>
</svg>
