<svg width="174" height="6" viewBox="0 0 174 6" fill="none" xmlns="http://www.w3.org/2000/svg">
<path d="M1.65736 0.0305095C2.63241 -0.0476489 3.91054 0.0359211 4.8819 0.150626C5.18632 0.186202 5.03217 0.345226 5.24232 0.376944C5.65333 0.438775 6.03623 0.360783 6.4424 0.434439C6.577 0.459627 6.40945 0.711522 6.55059 0.732167C7.32403 0.84349 8.05573 0.77933 8.83923 0.832875C12.6985 1.09706 16.4921 1.19161 20.3986 1.30638C21.6867 1.34401 23.2525 1.57262 24.5829 1.47264C24.7382 1.46075 24.6456 1.23965 24.6752 1.22142C25.1387 0.942449 24.9846 1.3888 25.2872 1.44811C26.4882 1.68226 27.8238 1.70263 28.9797 1.6173C29.4714 1.58035 28.9784 1.14119 29.4735 1.38768C29.5079 1.40434 29.3831 1.63913 29.518 1.66417C29.8238 1.72049 30.404 1.67853 30.641 1.69713C31.0978 1.73417 31.1734 1.73181 31.6055 1.73448C32.1961 1.74018 32.8987 1.8569 33.5324 1.8037C33.6676 1.79164 33.4886 1.55096 33.7043 1.51C33.9202 1.46911 34.4914 1.48951 34.684 1.54625C34.8766 1.60302 34.7946 1.7922 34.8287 1.83556C35.1091 2.20155 35.7699 1.69465 35.8549 1.68212C37.4049 1.46852 38.7342 1.75728 40.1892 1.75646C41.2938 1.75522 42.4749 1.65989 43.5259 1.67296C44.7781 1.68947 45.8393 1.81989 47.0558 1.79747C47.1842 1.79538 47.0337 1.51239 47.1905 1.50926C48.8564 1.47633 50.5107 1.50718 52.1694 1.69823C52.3357 1.71764 52.1214 1.9661 52.2875 2.00035C53.305 2.20455 54.9151 2.69507 55.5194 1.61327C56.2086 1.65551 57.0454 1.69916 57.662 1.91722C58.0596 2.05757 57.6734 2.32825 58.1618 2.21275C58.2719 2.18702 58.1287 1.94997 58.2939 1.92931C58.9894 1.84253 59.7492 1.91958 60.4372 1.79711C60.5771 1.77164 60.5389 1.55923 60.5786 1.52098C60.9118 1.21122 61.4665 1.72328 61.5875 1.76048C62.5084 2.03795 63.1809 1.92876 64.0387 1.93553C64.2378 1.93722 64.0025 1.65192 64.194 1.6433C65.1876 1.60241 66.2167 1.62693 67.1896 1.75353C67.406 1.78237 67.207 2.0254 67.3104 2.05162C67.7663 2.16427 67.8674 1.70525 68.3047 1.80443C68.3969 1.82475 68.345 2.0328 68.3618 2.05565C68.625 2.41433 68.8536 1.9061 68.9213 1.89488C69.7776 1.74157 70.325 2.27213 71.1522 2.19701C71.2512 2.18748 71.028 1.92424 71.3062 1.91356C73.1595 1.84089 75.1196 1.9132 76.9541 2.12376C77.2394 2.15615 77.0358 2.3539 77.0537 2.37828C77.3462 2.75918 77.5355 2.24882 77.6285 2.2296C78.3622 2.09124 79.0476 2.51924 79.5461 1.91136C82.6534 2.12232 85.7465 1.78096 88.8281 2.32555C88.8673 2.33185 88.7971 2.58321 88.8753 2.59471C89.8165 2.73584 89.6357 2.34519 90.2585 1.86742C90.4154 1.74745 90.8927 2.32428 90.9349 2.36656C91.0887 2.52237 90.9292 2.89632 90.9807 2.9265C91.407 3.16345 91.3375 1.92678 91.9126 1.92638C91.9306 1.92844 91.8551 2.15606 91.9033 2.1787C92.0533 2.24975 92.202 2.1593 92.3487 2.23766C92.6845 2.41896 92.8042 3.01988 93.3171 2.67015C93.382 2.62476 93.2829 1.92327 93.7964 1.95641C94.001 1.97021 94.9071 1.95819 95.161 2.00365C95.4147 2.04905 95.2405 2.27511 95.2586 2.2849C95.942 2.58382 95.6829 2.7077 96.0253 3.15025C96.3676 3.59113 96.2727 2.53959 96.4122 2.42223C96.552 2.30519 97.0531 2.55182 97.1762 2.63756C97.2993 2.72333 97.1458 2.86697 97.2552 2.91551C97.9808 3.23264 97.5737 2.39357 97.8128 2.22667C98.3764 1.83149 98.8154 2.61131 99.3314 2.68773C99.4711 2.70836 99.3571 2.53075 99.4814 2.51414C99.9738 2.45071 100.27 2.69404 100.83 2.47093C100.922 2.43457 101.375 1.96572 101.668 2.3098C101.709 2.35941 101.591 2.55374 101.801 2.59727C102.115 2.6626 102.68 2.70508 103.017 2.64012C103.265 2.59206 102.98 2.27185 103.293 2.37132C103.433 2.41574 103.175 2.60306 103.436 2.67088C103.696 2.73868 104.361 2.73045 104.614 2.72398C104.867 2.71737 104.729 2.47448 104.749 2.45811C104.873 2.36438 105.357 2.24725 105.4 2.24754C107.561 2.21789 109.554 2.62732 111.657 2.49181C111.823 2.48152 111.713 2.22539 111.738 2.22118C112.303 2.11386 111.857 2.79487 112.252 3.02281C112.195 2.50304 112.428 2.59715 112.826 2.54015C113.018 2.51225 112.914 2.31099 112.931 2.29039C113.216 1.9847 113.414 2.37954 113.465 2.46031C113.653 2.75743 113.858 2.40636 113.987 2.60496C114.115 2.80208 113.82 3.0943 114.202 3.09056C114.309 2.9045 114.025 2.41827 114.315 2.33946C115.409 2.04138 117.451 2.42288 118.33 2.46251C119.208 2.5021 119.491 2.46777 120.003 2.53502C120.927 2.6566 120.588 2.29585 121.162 2.13072C121.737 1.96562 121.457 2.85324 121.54 3.04405C121.621 3.23478 121.71 3.03844 121.811 3.14329C121.912 3.24812 121.694 3.37786 121.93 3.41722C122.167 3.45654 122.815 3.11722 122.899 2.91771C123.076 2.49501 122.785 2.05138 123.411 2.20726C123.447 2.21651 123.33 2.44991 123.468 2.47349C124.565 2.65317 125.704 2.66431 126.798 2.82323C126.949 2.84544 126.814 3.10509 126.902 3.12095C127.815 3.28703 127.488 2.84923 127.989 2.3629C127.876 3.01011 128.153 3.40607 128.845 3.40989C129.262 3.41242 129.19 3.12975 129.459 2.93052C129.54 2.87047 129.835 3.06456 129.888 2.93162C130.064 2.49708 129.787 2.01063 130.501 2.20433C130.532 2.21354 130.432 2.4514 130.541 2.4658C131.24 2.56009 131.324 2.10557 132.081 2.05052C132.674 2.00733 133.728 2.2845 134.403 2.32957C134.389 3.05722 135.027 2.8906 135.285 2.3889C135.723 2.40944 136.197 2.38108 136.62 2.45042C136.766 2.47407 136.67 2.68474 136.688 2.7075C136.97 3.06459 137.161 2.57649 137.255 2.55736C138.28 2.37134 139.115 2.74128 140.094 2.37975C140.128 2.36672 140.184 1.86128 140.446 2.23033C140.463 2.25577 140.14 2.48574 140.6 2.50352C141.06 2.52135 141.928 2.7923 142.567 2.55809C142.721 2.5017 143.112 2.09138 143.426 2.41197C143.468 2.4555 143.422 2.60047 143.483 2.68114C143.678 2.93817 143.784 2.42729 144.014 2.86131C144.243 3.29531 144.72 3.62035 145.364 3.3209C145.385 3.3122 145.537 2.90728 145.74 2.91368C146.064 2.92425 146.523 3.0086 146.861 3.00596C147.022 3.00456 146.919 2.75312 146.947 2.74852C148.034 2.60762 148.808 2.83178 149.973 2.92906C150.186 2.94739 150.8 2.60452 151.213 2.87559C151.667 3.17234 151.201 4.40674 152.244 4.11265C152.665 3.99502 153.198 2.42896 153.954 3.24034C155.421 3.03928 156.777 3.45454 158.248 3.16746C158.314 3.15474 158.523 2.71767 158.679 2.72362C158.91 2.73329 159.036 2.93758 159.201 2.95103C159.892 3.01257 160.524 2.83779 161.19 2.86497C161.443 2.87485 161.354 3.08608 161.656 3.09788C161.957 3.10949 162.158 2.83135 162.566 2.96568C162.875 3.06808 163.183 3.63659 163.593 3.70286C163.608 3.14208 163.889 3.15363 164.389 3.0056C164.485 2.97688 164.382 2.78169 164.428 2.75804C164.613 2.65744 164.784 2.81921 164.959 2.7097C165.002 2.6834 165.004 2.49189 165.039 2.45958C165.336 2.17754 165.825 2.60833 165.909 2.68333C166.231 2.96819 166.382 2.71911 166.629 2.83128C166.875 2.94344 166.507 3.08365 166.795 3.15172C167.392 3.2925 168.159 3.26157 168.765 3.27037C169.007 3.2727 168.842 3.01706 168.877 3.01146C169.377 2.94662 169.883 3.21854 170.16 2.70933C170.507 4.02596 170.462 2.58163 171.177 2.8452C171.234 2.86652 171.305 3.48914 171.089 3.58055C170.873 3.67187 170.545 3.47724 170.245 3.61973C170.174 3.65317 169.767 4.23661 169.711 4.27195C169.276 4.54816 169.214 3.61773 169.191 3.56663C168.93 3.01514 168.433 3.64368 168.302 3.68711C167.703 3.88612 167.194 3.75527 166.692 3.89732C166.365 3.98913 166.332 4.59859 166.075 4.57993C165.219 4.51827 164.921 3.66807 164.114 4.40525C163.941 4.56248 164.113 5.22861 163.494 4.70481C163.455 4.67179 162.995 4.19261 162.729 4.49571C162.696 4.53392 162.697 4.72805 162.653 4.74436C162.358 4.84985 162.161 4.69519 161.84 4.76926C161.518 4.84334 161.132 4.95376 160.765 4.88792C160.544 4.84854 160.26 4.48685 160.154 4.39829C159.855 4.1432 159.535 4.56145 159.35 4.25254C159.163 3.94208 159.528 3.4706 159.039 3.27C159.02 3.77437 158.979 4.29206 158.95 4.79929C157.877 4.78153 156.821 4.61844 155.744 4.64072C155.611 4.64399 155.747 4.91514 155.604 4.92564C155.001 4.96871 154.473 4.77542 153.847 4.85239C153.363 4.91302 152.831 5.20011 152.325 5.27244C152.015 4.69529 151.263 4.89122 150.717 4.83848C150.526 4.82025 150.538 4.66611 150.402 4.61582C149.889 4.42984 150.13 4.93985 149.989 5.02012C149.385 5.36267 149.333 4.20827 148.622 4.23679C148.584 4.23792 148.123 4.85326 148.059 4.89158C147.656 5.14145 147.993 4.6774 147.74 4.63194C147.279 4.54885 146.959 4.4019 146.418 4.58213C146.26 4.63552 145.882 5.01905 145.576 4.72239C145.535 4.68354 145.557 4.48015 145.525 4.46824C144.938 4.26969 144.923 4.90878 144.587 5.12522C144.252 5.34162 143.733 4.90044 143.628 4.77329C143.352 4.44436 143.839 4.63272 143.854 4.60044C144.03 4.2163 143.652 4.28244 143.363 4.24998C143.321 3.62335 142.918 3.66096 143.064 4.21885C143.08 4.27979 143.305 4.22135 143.363 4.24998C143.11 4.86479 142.666 4.94353 142.176 4.369C141.946 4.09972 142.163 3.78576 141.466 3.90061C141.15 3.95246 141.272 4.38393 140.993 4.50156C140.355 4.76996 139.526 4.36747 138.869 4.43089C138.63 4.45391 138.863 4.69009 138.7 4.71397C138.267 4.77806 137.885 4.60085 137.45 4.69163C137.411 4.70015 137.507 4.94739 137.372 4.95054C136.347 4.97925 135.455 4.82089 134.385 4.8165C133.868 4.8145 132.944 4.95085 132.409 4.92344C131.48 4.87738 130.339 4.51786 129.546 4.6052C129.029 4.66111 129.142 4.90839 128.92 5.07688C128.493 5.40348 127.736 4.81847 127.634 4.72788C127.631 4.72488 128.076 4.66659 127.839 4.53965C127.7 4.27515 127.639 4.72674 127.634 4.72788C127.567 4.66936 126.678 4.61323 126.502 4.6605C126.406 4.68633 126.459 4.92062 126.409 4.92966C125.221 5.13933 124.03 5.19888 122.825 5.08933C122.803 5.0846 122.835 4.82253 122.785 4.81467C122.087 4.69815 121.641 5.01874 121.065 5.20908C120.489 5.39934 120.033 5.33561 119.692 4.88572C119.258 4.94236 118.635 4.74347 118.276 4.62278C117.918 4.5021 117.868 5.01223 117.836 5.02231C116.852 5.3451 116.284 5.05311 115.263 5.00767C114.778 4.98519 113.815 5.05918 113.29 5.11497C112.874 5.15991 112.624 5.04035 112.242 5.1168C112.19 5.12701 112.242 5.35414 112.226 5.36289C111.799 5.63465 112.004 5.07937 111.916 4.9802C111.597 4.61956 111.399 4.42749 110.852 4.59715C110.726 4.636 110.359 5.43552 110.129 5.48227C109.83 5.5416 109.943 5.25502 109.63 5.32444C109.603 5.33012 109.608 5.50692 109.415 5.49912C108.518 5.46526 107.541 5.36238 106.609 5.3801C106.482 5.38184 106.645 5.66227 106.461 5.66941C105.598 5.70265 104.652 5.69227 103.811 5.56101C103.604 5.52782 103.734 5.33147 103.689 5.27317C103.413 4.92041 103.022 5.43296 102.958 5.44272C101.418 5.68903 100.24 5.22518 98.671 5.44602C98.5856 5.45898 97.9282 6.00844 97.6349 5.53721C97.6148 5.50585 97.3246 5.02373 97.068 5.35337C97.0521 5.37399 97.2329 5.6222 96.9174 5.5969C96.6018 5.57166 96.0939 5.73741 95.6602 5.4647C95.5229 5.37879 95.1983 4.89786 94.7887 5.28123C94.762 5.30799 94.1296 6.17484 93.9039 5.57676C93.8673 5.47831 93.9056 4.8454 93.4167 5.1699C93.3233 5.23281 93.4929 5.37398 93.2468 5.46213C92.8697 5.598 92.3701 5.42848 91.9066 5.71042C91.8258 5.76034 91.4817 6.18992 91.2057 5.86386C91.1625 5.8128 91.2446 5.6015 91.0988 5.57786C90.4057 5.46443 89.6799 5.60576 88.9761 5.45957C88.7269 5.4082 88.8543 5.06661 88.5945 4.97507C88.3346 4.88357 87.811 4.79554 87.5391 4.95164C87.2671 5.1078 87.5642 5.65221 87.1568 5.69577C85.3854 5.88498 83.6307 5.56561 81.862 5.5189C81.5996 5.51192 81.8171 5.70672 81.4305 5.71042C80.0052 5.72492 77.5444 5.90757 76.3076 5.49363C75.3167 5.16208 76.5637 4.90967 75.8065 4.77476C75.4411 4.7104 75.0458 5.34333 74.9576 5.36326C74.0958 5.56567 73.497 5.28529 72.7214 5.37131C72.5612 5.38916 72.7183 5.6457 72.582 5.65806C72.1164 5.70254 71.627 5.58804 71.1821 5.60898C70.9825 5.61897 71.0193 5.8149 70.8356 5.79978C70.3961 5.76585 70.0075 5.68349 69.5791 5.49985C69.5401 5.48312 69.8034 5.23939 69.4782 5.23032C68.952 5.21634 68.2988 5.03518 67.6934 5.22227C67.5137 5.27854 67.5067 5.72634 67.1206 5.41709C67.0396 5.3525 67.1429 4.81479 66.6931 5.27939C66.6174 5.3566 65.8619 5.98326 65.491 5.57932C65.3932 5.47301 65.1435 5.033 64.9275 5.10215C64.8982 5.11318 65.0156 5.35371 64.8366 5.37717C64.2057 5.45567 63.5445 5.43001 62.8964 5.50535C62.7233 5.52594 62.9811 5.77484 62.7232 5.79758C62.0138 5.86049 61.1282 5.79712 60.4345 5.71921C60.1788 5.69002 60.3555 5.48384 60.3369 5.4614C60.0377 5.09645 59.8608 5.58905 59.7615 5.61777C59.1438 5.78976 58.6734 5.55837 58.1041 5.6196C57.9469 5.63588 58.0583 5.87075 58.0271 5.8917C57.7027 6.09633 57.9443 5.67452 57.739 5.62803C57.1638 5.49637 56.5226 5.51525 55.9409 5.54526C55.7272 5.55663 55.9674 5.82898 55.7756 5.83603C54.6407 5.88296 53.4608 5.8569 52.3533 5.70676C52.1447 5.678 52.2759 5.46828 52.2325 5.42038C51.9329 5.08527 51.4938 5.54237 51.3928 5.58591C50.9334 5.78472 50.755 5.59927 50.3494 5.63389C48.3677 5.80623 45.9209 5.6834 44.0503 5.60752C41.6127 5.50986 39.7213 5.31035 37.3968 5.36216C37.249 5.36519 37.398 5.64417 37.2707 5.65036C35.6264 5.71762 34.0077 5.6086 32.3602 5.68918C32.225 5.6953 32.4199 5.95978 32.2029 5.97849C31.7578 6.01872 31.1939 6.00434 30.7439 5.9199C30.5244 5.87921 30.8188 5.65226 30.5979 5.61594C30.0834 5.53085 29.532 5.51202 29.0035 5.55442C28.7787 5.57304 29.118 5.84353 28.8257 5.84665C26.8346 5.87349 24.8792 5.92007 22.8671 5.5698C22.7292 5.54574 22.6081 4.99599 22.3149 5.10142C22.2928 5.25399 22.294 5.43346 22.2843 5.59653C19.3858 5.68438 16.5169 5.4938 13.6103 5.46433C13.4878 5.46315 13.6996 5.75444 13.4623 5.75364C12.0891 5.74933 10.7556 5.83002 9.35099 5.5405C9.21162 5.51219 9.28312 4.99974 8.87242 5.07725C8.79998 5.09139 8.18141 5.15973 8.02148 5.27097C7.99976 5.28775 8.11261 5.52694 7.91328 5.53391C6.75494 5.57023 5.54108 5.51563 4.38474 5.36948C4.19812 5.34544 4.39686 5.09072 4.26394 5.07139C3.32106 4.93617 2.29548 5.1298 1.39451 4.89854C0.791436 4.74282 1.01471 4.30252 0.694246 3.86912C0.648919 3.80797 0.275477 3.79828 0.256165 3.54612C0.206586 2.91204 0.387469 2.21773 0.313248 1.54186C0.297567 1.39628 -0.202568 1.55308 0.093544 1.20128C0.114231 1.17774 0.476831 1.06098 0.56614 0.941639C0.62832 0.859129 0.51627 0.602682 0.643136 0.497061C0.769992 0.391539 0.90939 0.606507 1.11971 0.482412C1.32995 0.356782 1.23751 0.0650439 1.65736 0.0305095ZM116.662 4.08335C116.33 3.83837 116.281 4.73565 116.64 4.52097C116.658 4.50953 116.679 4.09537 116.662 4.08335ZM156.827 3.94163C156.393 3.54586 156.096 4.1278 156.402 4.43345C156.708 4.73877 156.959 4.0616 156.827 3.94163ZM161.327 3.65269C160.82 3.34065 160.74 4.61303 161.283 4.35581C161.315 4.34128 161.357 3.67081 161.327 3.65269ZM2.1804 3.74571C2.17582 3.73379 1.90737 3.72218 1.90096 3.73399C1.75802 4.01896 2.2948 4.04199 2.1804 3.74571ZM165.793 3.33812C165.635 3.166 165.179 3.36469 165.375 3.57872C165.534 3.7509 165.99 3.55222 165.793 3.33812ZM99.3454 3.12571C99.3401 3.11234 99.1477 3.1003 99.1516 3.17589C99.1646 3.41932 99.4324 3.35061 99.3454 3.12571ZM173.383 3.32347C172.262 3.27557 171.582 2.22452 172.803 2.34312C173.024 2.36458 172.326 2.6783 172.608 2.77305C173.123 2.94569 173.465 2.28576 173.99 2.63939C174.086 2.70411 173.447 3.32854 173.381 3.32493C173.382 3.32444 173.382 3.32396 173.383 3.32347ZM116.471 3.0056C116.464 2.99373 116.198 2.98248 116.192 2.99425C116.047 3.27911 116.584 3.30194 116.471 3.0056ZM88.1152 2.57091C88.1005 2.54562 87.4823 2.52198 87.4621 2.54527C87.1396 3.0111 88.3896 3.06029 88.1152 2.57091ZM134.414 2.34898C134.704 2.06241 135.052 2.02867 135.284 2.38853C134.995 2.36943 134.704 2.36662 134.414 2.34898Z" fill="#FF5C35"/>
</svg>
